<?xml version="1.0" encoding="utf-8" standalone="no"?>
<!DOCTYPE svg PUBLIC "-//W3C//DTD SVG 1.1//EN"
  "http://www.w3.org/Graphics/SVG/1.1/DTD/svg11.dtd">
<!-- Created with matplotlib (http://matplotlib.org/) -->
<svg height="288pt" version="1.1" viewBox="0 0 432 288" width="432pt" xmlns="http://www.w3.org/2000/svg" xmlns:xlink="http://www.w3.org/1999/xlink">
 <defs>
  <style type="text/css">
*{stroke-linecap:butt;stroke-linejoin:round;stroke-miterlimit:100000;}
  </style>
 </defs>
 <g id="figure_1">
  <g id="patch_1">
   <path d="M 0 288 
L 432 288 
L 432 0 
L 0 0 
z
" style="fill:#ffffff;"/>
  </g>
  <g id="axes_1">
   <g id="patch_2">
    <path d="M 54 252 
L 388.8 252 
L 388.8 28.8 
L 54 28.8 
z
" style="fill:#ffffff;"/>
   </g>
   <g id="LineCollection_1">
    <path clip-path="url(#p229452278b)" d="M 345.967868 128.295409 
L 360.940579 128.295409 
" style="fill:none;stroke:#0000ff;"/>
    <path clip-path="url(#p229452278b)" d="M 333.029345 131.447118 
L 346.007454 131.447118 
" style="fill:none;stroke:#0000ff;"/>
    <path clip-path="url(#p229452278b)" d="M 321.667992 131.447118 
L 333.058119 131.447118 
" style="fill:none;stroke:#0000ff;"/>
    <path clip-path="url(#p229452278b)" d="M 311.587983 136.568646 
L 321.689473 136.568646 
" style="fill:none;stroke:#0000ff;"/>
    <path clip-path="url(#p229452278b)" d="M 302.565636 148.781519 
L 311.604386 148.781519 
" style="fill:none;stroke:#0000ff;"/>
    <path clip-path="url(#p229452278b)" d="M 294.428294 145.62981 
L 302.578405 145.62981 
" style="fill:none;stroke:#0000ff;"/>
    <path clip-path="url(#p229452278b)" d="M 287.040298 155.478902 
L 294.438403 155.478902 
" style="fill:none;stroke:#0000ff;"/>
    <path clip-path="url(#p229452278b)" d="M 280.293392 160.206466 
L 287.048419 160.206466 
" style="fill:none;stroke:#0000ff;"/>
    <path clip-path="url(#p229452278b)" d="M 274.1 158.630611 
L 280.3 158.630611 
" style="fill:none;stroke:#0000ff;"/>
    <path clip-path="url(#p229452278b)" d="M 268.388415 164.540066 
L 274.105439 164.540066 
" style="fill:none;stroke:#0000ff;"/>
    <path clip-path="url(#p229452278b)" d="M 263.099286 164.540066 
L 268.392939 164.540066 
" style="fill:none;stroke:#0000ff;"/>
    <path clip-path="url(#p229452278b)" d="M 258.18301 168.479703 
L 263.103083 168.479703 
" style="fill:none;stroke:#0000ff;"/>
    <path clip-path="url(#p229452278b)" d="M 253.597769 170.843485 
L 258.186224 170.843485 
" style="fill:none;stroke:#0000ff;"/>
    <path clip-path="url(#p229452278b)" d="M 249.308026 171.631412 
L 253.60051 171.631412 
" style="fill:none;stroke:#0000ff;"/>
    <path clip-path="url(#p229452278b)" d="M 245.283361 172.025376 
L 249.310379 172.025376 
" style="fill:none;stroke:#0000ff;"/>
    <path clip-path="url(#p229452278b)" d="M 241.497565 173.60123 
L 245.285395 173.60123 
" style="fill:none;stroke:#0000ff;"/>
   </g>
   <g id="LineCollection_2">
    <path clip-path="url(#p229452278b)" d="M 353.454224 133.022973 
L 353.454224 123.567845 
" style="fill:none;stroke:#0000ff;"/>
    <path clip-path="url(#p229452278b)" d="M 339.518399 136.025034 
L 339.518399 126.869202 
" style="fill:none;stroke:#0000ff;"/>
    <path clip-path="url(#p229452278b)" d="M 327.363055 135.894506 
L 327.363055 126.99973 
" style="fill:none;stroke:#0000ff;"/>
    <path clip-path="url(#p229452278b)" d="M 316.638728 140.900872 
L 316.638728 132.236419 
" style="fill:none;stroke:#0000ff;"/>
    <path clip-path="url(#p229452278b)" d="M 307.085011 153.011155 
L 307.085011 144.551884 
" style="fill:none;stroke:#0000ff;"/>
    <path clip-path="url(#p229452278b)" d="M 298.50335 149.767293 
L 298.50335 141.492327 
" style="fill:none;stroke:#0000ff;"/>
    <path clip-path="url(#p229452278b)" d="M 290.73935 159.533012 
L 290.73935 151.424791 
" style="fill:none;stroke:#0000ff;"/>
    <path clip-path="url(#p229452278b)" d="M 283.670905 164.184673 
L 283.670905 156.228259 
" style="fill:none;stroke:#0000ff;"/>
    <path clip-path="url(#p229452278b)" d="M 277.2 162.539331 
L 277.2 154.721891 
" style="fill:none;stroke:#0000ff;"/>
    <path clip-path="url(#p229452278b)" d="M 271.246927 168.38486 
L 271.246927 160.695272 
" style="fill:none;stroke:#0000ff;"/>
    <path clip-path="url(#p229452278b)" d="M 265.746112 168.325791 
L 265.746112 160.754341 
" style="fill:none;stroke:#0000ff;"/>
    <path clip-path="url(#p229452278b)" d="M 260.643046 172.210629 
L 260.643046 164.748777 
" style="fill:none;stroke:#0000ff;"/>
    <path clip-path="url(#p229452278b)" d="M 255.891996 174.523392 
L 255.891996 167.163577 
" style="fill:none;stroke:#0000ff;"/>
    <path clip-path="url(#p229452278b)" d="M 251.454268 175.263666 
L 251.454268 167.999158 
" style="fill:none;stroke:#0000ff;"/>
    <path clip-path="url(#p229452278b)" d="M 247.29687 175.612986 
L 247.29687 168.437765 
" style="fill:none;stroke:#0000ff;"/>
    <path clip-path="url(#p229452278b)" d="M 243.39148 177.146903 
L 243.39148 170.055557 
" style="fill:none;stroke:#0000ff;"/>
   </g>
   <g id="LineCollection_3">
    <path clip-path="url(#p229452278b)" d="M 345.967868 57.775912 
L 360.940579 57.775912 
" style="fill:none;stroke:#008000;"/>
    <path clip-path="url(#p229452278b)" d="M 333.029345 49.896639 
L 346.007454 49.896639 
" style="fill:none;stroke:#008000;"/>
    <path clip-path="url(#p229452278b)" d="M 321.667992 55.41213 
L 333.058119 55.41213 
" style="fill:none;stroke:#008000;"/>
    <path clip-path="url(#p229452278b)" d="M 311.587983 60.533658 
L 321.689473 60.533658 
" style="fill:none;stroke:#008000;"/>
    <path clip-path="url(#p229452278b)" d="M 302.565636 68.018968 
L 311.604386 68.018968 
" style="fill:none;stroke:#008000;"/>
    <path clip-path="url(#p229452278b)" d="M 294.428294 74.322386 
L 302.578405 74.322386 
" style="fill:none;stroke:#008000;"/>
    <path clip-path="url(#p229452278b)" d="M 287.040298 81.019769 
L 294.438403 81.019769 
" style="fill:none;stroke:#008000;"/>
    <path clip-path="url(#p229452278b)" d="M 280.293392 86.929224 
L 287.048419 86.929224 
" style="fill:none;stroke:#008000;"/>
    <path clip-path="url(#p229452278b)" d="M 274.1 92.444715 
L 280.3 92.444715 
" style="fill:none;stroke:#008000;"/>
    <path clip-path="url(#p229452278b)" d="M 268.388415 94.414533 
L 274.105439 94.414533 
" style="fill:none;stroke:#008000;"/>
    <path clip-path="url(#p229452278b)" d="M 263.099286 100.323988 
L 268.392939 100.323988 
" style="fill:none;stroke:#008000;"/>
    <path clip-path="url(#p229452278b)" d="M 258.18301 102.293807 
L 263.103083 102.293807 
" style="fill:none;stroke:#008000;"/>
    <path clip-path="url(#p229452278b)" d="M 253.597769 107.415334 
L 258.186224 107.415334 
" style="fill:none;stroke:#008000;"/>
    <path clip-path="url(#p229452278b)" d="M 249.308026 109.385153 
L 253.60051 109.385153 
" style="fill:none;stroke:#008000;"/>
    <path clip-path="url(#p229452278b)" d="M 245.283361 110.961007 
L 249.310379 110.961007 
" style="fill:none;stroke:#008000;"/>
    <path clip-path="url(#p229452278b)" d="M 241.497565 114.112717 
L 245.285395 114.112717 
" style="fill:none;stroke:#008000;"/>
   </g>
   <g id="LineCollection_4">
    <path clip-path="url(#p229452278b)" d="M 353.454224 69.003877 
L 353.454224 46.547948 
" style="fill:none;stroke:#008000;"/>
    <path clip-path="url(#p229452278b)" d="M 339.518399 60.526013 
L 339.518399 39.267265 
" style="fill:none;stroke:#008000;"/>
    <path clip-path="url(#p229452278b)" d="M 327.363055 65.519392 
L 327.363055 45.304869 
" style="fill:none;stroke:#008000;"/>
    <path clip-path="url(#p229452278b)" d="M 316.638728 70.180274 
L 316.638728 50.887043 
" style="fill:none;stroke:#008000;"/>
    <path clip-path="url(#p229452278b)" d="M 307.085011 77.255219 
L 307.085011 58.782717 
" style="fill:none;stroke:#008000;"/>
    <path clip-path="url(#p229452278b)" d="M 298.50335 83.190027 
L 298.50335 65.454746 
" style="fill:none;stroke:#008000;"/>
    <path clip-path="url(#p229452278b)" d="M 290.73935 89.553919 
L 290.73935 72.485618 
" style="fill:none;stroke:#008000;"/>
    <path clip-path="url(#p229452278b)" d="M 283.670905 95.159761 
L 283.670905 78.698687 
" style="fill:none;stroke:#008000;"/>
    <path clip-path="url(#p229452278b)" d="M 277.2 100.397305 
L 277.2 84.492125 
" style="fill:none;stroke:#008000;"/>
    <path clip-path="url(#p229452278b)" d="M 271.246927 102.111419 
L 271.246927 86.717648 
" style="fill:none;stroke:#008000;"/>
    <path clip-path="url(#p229452278b)" d="M 265.746112 107.784595 
L 265.746112 92.863382 
" style="fill:none;stroke:#008000;"/>
    <path clip-path="url(#p229452278b)" d="M 260.643046 109.53522 
L 260.643046 95.052394 
" style="fill:none;stroke:#008000;"/>
    <path clip-path="url(#p229452278b)" d="M 255.891996 114.452674 
L 255.891996 100.377995 
" style="fill:none;stroke:#008000;"/>
    <path clip-path="url(#p229452278b)" d="M 251.454268 116.231877 
L 251.454268 102.538429 
" style="fill:none;stroke:#008000;"/>
    <path clip-path="url(#p229452278b)" d="M 247.29687 117.629158 
L 247.29687 104.292857 
" style="fill:none;stroke:#008000;"/>
    <path clip-path="url(#p229452278b)" d="M 243.39148 120.613117 
L 243.39148 107.612316 
" style="fill:none;stroke:#008000;"/>
   </g>
   <g id="line2d_1">
    <defs>
     <path d="M 0 3 
L 0 -3 
" id="mbf75d05ee5" style="stroke:#0000ff;stroke-width:0.5;"/>
    </defs>
    <g clip-path="url(#p229452278b)">
     <use style="fill:#0000ff;stroke:#0000ff;stroke-width:0.5;" x="345.967867958" xlink:href="#mbf75d05ee5" y="128.295408753"/>
     <use style="fill:#0000ff;stroke:#0000ff;stroke-width:0.5;" x="333.029344813" xlink:href="#mbf75d05ee5" y="131.447118084"/>
     <use style="fill:#0000ff;stroke:#0000ff;stroke-width:0.5;" x="321.667991643" xlink:href="#mbf75d05ee5" y="131.447118084"/>
     <use style="fill:#0000ff;stroke:#0000ff;stroke-width:0.5;" x="311.587983404" xlink:href="#mbf75d05ee5" y="136.568645747"/>
     <use style="fill:#0000ff;stroke:#0000ff;stroke-width:0.5;" x="302.565635928" xlink:href="#mbf75d05ee5" y="148.781519405"/>
     <use style="fill:#0000ff;stroke:#0000ff;stroke-width:0.5;" x="294.428293842" xlink:href="#mbf75d05ee5" y="145.629810074"/>
     <use style="fill:#0000ff;stroke:#0000ff;stroke-width:0.5;" x="287.040297992" xlink:href="#mbf75d05ee5" y="155.478901734"/>
     <use style="fill:#0000ff;stroke:#0000ff;stroke-width:0.5;" x="280.293391911" xlink:href="#mbf75d05ee5" y="160.206465731"/>
     <use style="fill:#0000ff;stroke:#0000ff;stroke-width:0.5;" x="274.1" xlink:href="#mbf75d05ee5" y="158.630611065"/>
     <use style="fill:#0000ff;stroke:#0000ff;stroke-width:0.5;" x="268.388414979" xlink:href="#mbf75d05ee5" y="164.540066061"/>
     <use style="fill:#0000ff;stroke:#0000ff;stroke-width:0.5;" x="263.099285723" xlink:href="#mbf75d05ee5" y="164.540066061"/>
     <use style="fill:#0000ff;stroke:#0000ff;stroke-width:0.5;" x="258.183010004" xlink:href="#mbf75d05ee5" y="168.479702725"/>
     <use style="fill:#0000ff;stroke:#0000ff;stroke-width:0.5;" x="253.597769098" xlink:href="#mbf75d05ee5" y="170.843484723"/>
     <use style="fill:#0000ff;stroke:#0000ff;stroke-width:0.5;" x="249.308025643" xlink:href="#mbf75d05ee5" y="171.631412056"/>
     <use style="fill:#0000ff;stroke:#0000ff;stroke-width:0.5;" x="245.283361061" xlink:href="#mbf75d05ee5" y="172.025375723"/>
     <use style="fill:#0000ff;stroke:#0000ff;stroke-width:0.5;" x="241.49756547" xlink:href="#mbf75d05ee5" y="173.601230388"/>
    </g>
   </g>
   <g id="line2d_2">
    <g clip-path="url(#p229452278b)">
     <use style="fill:#0000ff;stroke:#0000ff;stroke-width:0.5;" x="360.940579135" xlink:href="#mbf75d05ee5" y="128.295408753"/>
     <use style="fill:#0000ff;stroke:#0000ff;stroke-width:0.5;" x="346.007453874" xlink:href="#mbf75d05ee5" y="131.447118084"/>
     <use style="fill:#0000ff;stroke:#0000ff;stroke-width:0.5;" x="333.058118947" xlink:href="#mbf75d05ee5" y="131.447118084"/>
     <use style="fill:#0000ff;stroke:#0000ff;stroke-width:0.5;" x="321.68947295" xlink:href="#mbf75d05ee5" y="136.568645747"/>
     <use style="fill:#0000ff;stroke:#0000ff;stroke-width:0.5;" x="311.604386326" xlink:href="#mbf75d05ee5" y="148.781519405"/>
     <use style="fill:#0000ff;stroke:#0000ff;stroke-width:0.5;" x="302.578405498" xlink:href="#mbf75d05ee5" y="145.629810074"/>
     <use style="fill:#0000ff;stroke:#0000ff;stroke-width:0.5;" x="294.43840269" xlink:href="#mbf75d05ee5" y="155.478901734"/>
     <use style="fill:#0000ff;stroke:#0000ff;stroke-width:0.5;" x="287.048418535" xlink:href="#mbf75d05ee5" y="160.206465731"/>
     <use style="fill:#0000ff;stroke:#0000ff;stroke-width:0.5;" x="280.3" xlink:href="#mbf75d05ee5" y="158.630611065"/>
     <use style="fill:#0000ff;stroke:#0000ff;stroke-width:0.5;" x="274.105439378" xlink:href="#mbf75d05ee5" y="164.540066061"/>
     <use style="fill:#0000ff;stroke:#0000ff;stroke-width:0.5;" x="268.392938526" xlink:href="#mbf75d05ee5" y="164.540066061"/>
     <use style="fill:#0000ff;stroke:#0000ff;stroke-width:0.5;" x="263.103082534" xlink:href="#mbf75d05ee5" y="168.479702725"/>
     <use style="fill:#0000ff;stroke:#0000ff;stroke-width:0.5;" x="258.18622356" xlink:href="#mbf75d05ee5" y="170.843484723"/>
     <use style="fill:#0000ff;stroke:#0000ff;stroke-width:0.5;" x="253.600509723" xlink:href="#mbf75d05ee5" y="171.631412056"/>
     <use style="fill:#0000ff;stroke:#0000ff;stroke-width:0.5;" x="249.310379188" xlink:href="#mbf75d05ee5" y="172.025375723"/>
     <use style="fill:#0000ff;stroke:#0000ff;stroke-width:0.5;" x="245.285395076" xlink:href="#mbf75d05ee5" y="173.601230388"/>
    </g>
   </g>
   <g id="line2d_3">
    <defs>
     <path d="M 3 0 
L -3 -0 
" id="m5d34cfb3f9" style="stroke:#0000ff;stroke-width:0.5;"/>
    </defs>
    <g clip-path="url(#p229452278b)">
     <use style="fill:#0000ff;stroke:#0000ff;stroke-width:0.5;" x="353.454223547" xlink:href="#m5d34cfb3f9" y="133.02297275"/>
     <use style="fill:#0000ff;stroke:#0000ff;stroke-width:0.5;" x="339.518399343" xlink:href="#m5d34cfb3f9" y="136.025034483"/>
     <use style="fill:#0000ff;stroke:#0000ff;stroke-width:0.5;" x="327.363055295" xlink:href="#m5d34cfb3f9" y="135.894506283"/>
     <use style="fill:#0000ff;stroke:#0000ff;stroke-width:0.5;" x="316.638728177" xlink:href="#m5d34cfb3f9" y="140.900872491"/>
     <use style="fill:#0000ff;stroke:#0000ff;stroke-width:0.5;" x="307.085011127" xlink:href="#m5d34cfb3f9" y="153.011155101"/>
     <use style="fill:#0000ff;stroke:#0000ff;stroke-width:0.5;" x="298.50334967" xlink:href="#m5d34cfb3f9" y="149.767292984"/>
     <use style="fill:#0000ff;stroke:#0000ff;stroke-width:0.5;" x="290.739350341" xlink:href="#m5d34cfb3f9" y="159.53301219"/>
     <use style="fill:#0000ff;stroke:#0000ff;stroke-width:0.5;" x="283.670905223" xlink:href="#m5d34cfb3f9" y="164.18467283"/>
     <use style="fill:#0000ff;stroke:#0000ff;stroke-width:0.5;" x="277.2" xlink:href="#m5d34cfb3f9" y="162.539331394"/>
     <use style="fill:#0000ff;stroke:#0000ff;stroke-width:0.5;" x="271.246927178" xlink:href="#m5d34cfb3f9" y="168.384860278"/>
     <use style="fill:#0000ff;stroke:#0000ff;stroke-width:0.5;" x="265.746112125" xlink:href="#m5d34cfb3f9" y="168.325790664"/>
     <use style="fill:#0000ff;stroke:#0000ff;stroke-width:0.5;" x="260.643046269" xlink:href="#m5d34cfb3f9" y="172.210628879"/>
     <use style="fill:#0000ff;stroke:#0000ff;stroke-width:0.5;" x="255.891996329" xlink:href="#m5d34cfb3f9" y="174.523392494"/>
     <use style="fill:#0000ff;stroke:#0000ff;stroke-width:0.5;" x="251.454267683" xlink:href="#m5d34cfb3f9" y="175.263665995"/>
     <use style="fill:#0000ff;stroke:#0000ff;stroke-width:0.5;" x="247.296870125" xlink:href="#m5d34cfb3f9" y="175.612986118"/>
     <use style="fill:#0000ff;stroke:#0000ff;stroke-width:0.5;" x="243.391480273" xlink:href="#m5d34cfb3f9" y="177.146903386"/>
    </g>
   </g>
   <g id="line2d_4">
    <g clip-path="url(#p229452278b)">
     <use style="fill:#0000ff;stroke:#0000ff;stroke-width:0.5;" x="353.454223547" xlink:href="#m5d34cfb3f9" y="123.567844756"/>
     <use style="fill:#0000ff;stroke:#0000ff;stroke-width:0.5;" x="339.518399343" xlink:href="#m5d34cfb3f9" y="126.869201686"/>
     <use style="fill:#0000ff;stroke:#0000ff;stroke-width:0.5;" x="327.363055295" xlink:href="#m5d34cfb3f9" y="126.999729885"/>
     <use style="fill:#0000ff;stroke:#0000ff;stroke-width:0.5;" x="316.638728177" xlink:href="#m5d34cfb3f9" y="132.236419004"/>
     <use style="fill:#0000ff;stroke:#0000ff;stroke-width:0.5;" x="307.085011127" xlink:href="#m5d34cfb3f9" y="144.55188371"/>
     <use style="fill:#0000ff;stroke:#0000ff;stroke-width:0.5;" x="298.50334967" xlink:href="#m5d34cfb3f9" y="141.492327165"/>
     <use style="fill:#0000ff;stroke:#0000ff;stroke-width:0.5;" x="290.739350341" xlink:href="#m5d34cfb3f9" y="151.424791278"/>
     <use style="fill:#0000ff;stroke:#0000ff;stroke-width:0.5;" x="283.670905223" xlink:href="#m5d34cfb3f9" y="156.228258632"/>
     <use style="fill:#0000ff;stroke:#0000ff;stroke-width:0.5;" x="277.2" xlink:href="#m5d34cfb3f9" y="154.721890737"/>
     <use style="fill:#0000ff;stroke:#0000ff;stroke-width:0.5;" x="271.246927178" xlink:href="#m5d34cfb3f9" y="160.695271844"/>
     <use style="fill:#0000ff;stroke:#0000ff;stroke-width:0.5;" x="265.746112125" xlink:href="#m5d34cfb3f9" y="160.754341459"/>
     <use style="fill:#0000ff;stroke:#0000ff;stroke-width:0.5;" x="260.643046269" xlink:href="#m5d34cfb3f9" y="164.748776571"/>
     <use style="fill:#0000ff;stroke:#0000ff;stroke-width:0.5;" x="255.891996329" xlink:href="#m5d34cfb3f9" y="167.163576952"/>
     <use style="fill:#0000ff;stroke:#0000ff;stroke-width:0.5;" x="251.454267683" xlink:href="#m5d34cfb3f9" y="167.999158118"/>
     <use style="fill:#0000ff;stroke:#0000ff;stroke-width:0.5;" x="247.296870125" xlink:href="#m5d34cfb3f9" y="168.437765327"/>
     <use style="fill:#0000ff;stroke:#0000ff;stroke-width:0.5;" x="243.391480273" xlink:href="#m5d34cfb3f9" y="170.055557391"/>
    </g>
   </g>
   <g id="line2d_5">
    <path clip-path="url(#p229452278b)" d="M 353.454224 128.295409 
L 339.518399 131.447118 
L 327.363055 131.447118 
L 316.638728 136.568646 
L 307.085011 148.781519 
L 298.50335 145.62981 
L 290.73935 155.478902 
L 283.670905 160.206466 
L 277.2 158.630611 
L 271.246927 164.540066 
L 265.746112 164.540066 
L 260.643046 168.479703 
L 255.891996 170.843485 
L 251.454268 171.631412 
L 247.29687 172.025376 
L 243.39148 173.60123 
" style="fill:none;stroke:#0000ff;stroke-linecap:square;"/>
    <defs>
     <path d="M 0 3 
C 0.795609 3 1.55874 2.683901 2.12132 2.12132 
C 2.683901 1.55874 3 0.795609 3 0 
C 3 -0.795609 2.683901 -1.55874 2.12132 -2.12132 
C 1.55874 -2.683901 0.795609 -3 0 -3 
C -0.795609 -3 -1.55874 -2.683901 -2.12132 -2.12132 
C -2.683901 -1.55874 -3 -0.795609 -3 0 
C -3 0.795609 -2.683901 1.55874 -2.12132 2.12132 
C -1.55874 2.683901 -0.795609 3 0 3 
z
" id="m4e3f23765e" style="stroke:#000000;stroke-width:0.5;"/>
    </defs>
    <g clip-path="url(#p229452278b)">
     <use style="fill:#0000ff;stroke:#000000;stroke-width:0.5;" x="353.454223547" xlink:href="#m4e3f23765e" y="128.295408753"/>
     <use style="fill:#0000ff;stroke:#000000;stroke-width:0.5;" x="339.518399343" xlink:href="#m4e3f23765e" y="131.447118084"/>
     <use style="fill:#0000ff;stroke:#000000;stroke-width:0.5;" x="327.363055295" xlink:href="#m4e3f23765e" y="131.447118084"/>
     <use style="fill:#0000ff;stroke:#000000;stroke-width:0.5;" x="316.638728177" xlink:href="#m4e3f23765e" y="136.568645747"/>
     <use style="fill:#0000ff;stroke:#000000;stroke-width:0.5;" x="307.085011127" xlink:href="#m4e3f23765e" y="148.781519405"/>
     <use style="fill:#0000ff;stroke:#000000;stroke-width:0.5;" x="298.50334967" xlink:href="#m4e3f23765e" y="145.629810074"/>
     <use style="fill:#0000ff;stroke:#000000;stroke-width:0.5;" x="290.739350341" xlink:href="#m4e3f23765e" y="155.478901734"/>
     <use style="fill:#0000ff;stroke:#000000;stroke-width:0.5;" x="283.670905223" xlink:href="#m4e3f23765e" y="160.206465731"/>
     <use style="fill:#0000ff;stroke:#000000;stroke-width:0.5;" x="277.2" xlink:href="#m4e3f23765e" y="158.630611065"/>
     <use style="fill:#0000ff;stroke:#000000;stroke-width:0.5;" x="271.246927178" xlink:href="#m4e3f23765e" y="164.540066061"/>
     <use style="fill:#0000ff;stroke:#000000;stroke-width:0.5;" x="265.746112125" xlink:href="#m4e3f23765e" y="164.540066061"/>
     <use style="fill:#0000ff;stroke:#000000;stroke-width:0.5;" x="260.643046269" xlink:href="#m4e3f23765e" y="168.479702725"/>
     <use style="fill:#0000ff;stroke:#000000;stroke-width:0.5;" x="255.891996329" xlink:href="#m4e3f23765e" y="170.843484723"/>
     <use style="fill:#0000ff;stroke:#000000;stroke-width:0.5;" x="251.454267683" xlink:href="#m4e3f23765e" y="171.631412056"/>
     <use style="fill:#0000ff;stroke:#000000;stroke-width:0.5;" x="247.296870125" xlink:href="#m4e3f23765e" y="172.025375723"/>
     <use style="fill:#0000ff;stroke:#000000;stroke-width:0.5;" x="243.391480273" xlink:href="#m4e3f23765e" y="173.601230388"/>
    </g>
   </g>
   <g id="line2d_6">
    <defs>
     <path d="M 0 3 
L 0 -3 
" id="mf5c6e1d224" style="stroke:#008000;stroke-width:0.5;"/>
    </defs>
    <g clip-path="url(#p229452278b)">
     <use style="fill:#008000;stroke:#008000;stroke-width:0.5;" x="345.967867958" xlink:href="#mf5c6e1d224" y="57.775912469"/>
     <use style="fill:#008000;stroke:#008000;stroke-width:0.5;" x="333.029344813" xlink:href="#mf5c6e1d224" y="49.8966391412"/>
     <use style="fill:#008000;stroke:#008000;stroke-width:0.5;" x="321.667991643" xlink:href="#mf5c6e1d224" y="55.4121304707"/>
     <use style="fill:#008000;stroke:#008000;stroke-width:0.5;" x="311.587983404" xlink:href="#mf5c6e1d224" y="60.5336581338"/>
     <use style="fill:#008000;stroke:#008000;stroke-width:0.5;" x="302.565635928" xlink:href="#mf5c6e1d224" y="68.0189677952"/>
     <use style="fill:#008000;stroke:#008000;stroke-width:0.5;" x="294.428293842" xlink:href="#mf5c6e1d224" y="74.3223864575"/>
     <use style="fill:#008000;stroke:#008000;stroke-width:0.5;" x="287.040297992" xlink:href="#mf5c6e1d224" y="81.0197687861"/>
     <use style="fill:#008000;stroke:#008000;stroke-width:0.5;" x="280.293391911" xlink:href="#mf5c6e1d224" y="86.929223782"/>
     <use style="fill:#008000;stroke:#008000;stroke-width:0.5;" x="274.1" xlink:href="#mf5c6e1d224" y="92.4447151115"/>
     <use style="fill:#008000;stroke:#008000;stroke-width:0.5;" x="268.388414979" xlink:href="#mf5c6e1d224" y="94.4145334434"/>
     <use style="fill:#008000;stroke:#008000;stroke-width:0.5;" x="263.099285723" xlink:href="#mf5c6e1d224" y="100.323988439"/>
     <use style="fill:#008000;stroke:#008000;stroke-width:0.5;" x="258.183010004" xlink:href="#mf5c6e1d224" y="102.293806771"/>
     <use style="fill:#008000;stroke:#008000;stroke-width:0.5;" x="253.597769098" xlink:href="#mf5c6e1d224" y="107.415334434"/>
     <use style="fill:#008000;stroke:#008000;stroke-width:0.5;" x="249.308025643" xlink:href="#mf5c6e1d224" y="109.385152766"/>
     <use style="fill:#008000;stroke:#008000;stroke-width:0.5;" x="245.283361061" xlink:href="#mf5c6e1d224" y="110.961007432"/>
     <use style="fill:#008000;stroke:#008000;stroke-width:0.5;" x="241.49756547" xlink:href="#mf5c6e1d224" y="114.112716763"/>
    </g>
   </g>
   <g id="line2d_7">
    <g clip-path="url(#p229452278b)">
     <use style="fill:#008000;stroke:#008000;stroke-width:0.5;" x="360.940579135" xlink:href="#mf5c6e1d224" y="57.775912469"/>
     <use style="fill:#008000;stroke:#008000;stroke-width:0.5;" x="346.007453874" xlink:href="#mf5c6e1d224" y="49.8966391412"/>
     <use style="fill:#008000;stroke:#008000;stroke-width:0.5;" x="333.058118947" xlink:href="#mf5c6e1d224" y="55.4121304707"/>
     <use style="fill:#008000;stroke:#008000;stroke-width:0.5;" x="321.68947295" xlink:href="#mf5c6e1d224" y="60.5336581338"/>
     <use style="fill:#008000;stroke:#008000;stroke-width:0.5;" x="311.604386326" xlink:href="#mf5c6e1d224" y="68.0189677952"/>
     <use style="fill:#008000;stroke:#008000;stroke-width:0.5;" x="302.578405498" xlink:href="#mf5c6e1d224" y="74.3223864575"/>
     <use style="fill:#008000;stroke:#008000;stroke-width:0.5;" x="294.43840269" xlink:href="#mf5c6e1d224" y="81.0197687861"/>
     <use style="fill:#008000;stroke:#008000;stroke-width:0.5;" x="287.048418535" xlink:href="#mf5c6e1d224" y="86.929223782"/>
     <use style="fill:#008000;stroke:#008000;stroke-width:0.5;" x="280.3" xlink:href="#mf5c6e1d224" y="92.4447151115"/>
     <use style="fill:#008000;stroke:#008000;stroke-width:0.5;" x="274.105439378" xlink:href="#mf5c6e1d224" y="94.4145334434"/>
     <use style="fill:#008000;stroke:#008000;stroke-width:0.5;" x="268.392938526" xlink:href="#mf5c6e1d224" y="100.323988439"/>
     <use style="fill:#008000;stroke:#008000;stroke-width:0.5;" x="263.103082534" xlink:href="#mf5c6e1d224" y="102.293806771"/>
     <use style="fill:#008000;stroke:#008000;stroke-width:0.5;" x="258.18622356" xlink:href="#mf5c6e1d224" y="107.415334434"/>
     <use style="fill:#008000;stroke:#008000;stroke-width:0.5;" x="253.600509723" xlink:href="#mf5c6e1d224" y="109.385152766"/>
     <use style="fill:#008000;stroke:#008000;stroke-width:0.5;" x="249.310379188" xlink:href="#mf5c6e1d224" y="110.961007432"/>
     <use style="fill:#008000;stroke:#008000;stroke-width:0.5;" x="245.285395076" xlink:href="#mf5c6e1d224" y="114.112716763"/>
    </g>
   </g>
   <g id="line2d_8">
    <defs>
     <path d="M 3 0 
L -3 -0 
" id="m29d9fc822c" style="stroke:#008000;stroke-width:0.5;"/>
    </defs>
    <g clip-path="url(#p229452278b)">
     <use style="fill:#008000;stroke:#008000;stroke-width:0.5;" x="353.454223547" xlink:href="#m29d9fc822c" y="69.0038769612"/>
     <use style="fill:#008000;stroke:#008000;stroke-width:0.5;" x="339.518399343" xlink:href="#m29d9fc822c" y="60.5260132402"/>
     <use style="fill:#008000;stroke:#008000;stroke-width:0.5;" x="327.363055295" xlink:href="#m29d9fc822c" y="65.5193917713"/>
     <use style="fill:#008000;stroke:#008000;stroke-width:0.5;" x="316.638728177" xlink:href="#m29d9fc822c" y="70.1802736131"/>
     <use style="fill:#008000;stroke:#008000;stroke-width:0.5;" x="307.085011127" xlink:href="#m29d9fc822c" y="77.2552190821"/>
     <use style="fill:#008000;stroke:#008000;stroke-width:0.5;" x="298.50334967" xlink:href="#m29d9fc822c" y="83.1900266001"/>
     <use style="fill:#008000;stroke:#008000;stroke-width:0.5;" x="290.739350341" xlink:href="#m29d9fc822c" y="89.5539191155"/>
     <use style="fill:#008000;stroke:#008000;stroke-width:0.5;" x="283.670905223" xlink:href="#m29d9fc822c" y="95.1597606845"/>
     <use style="fill:#008000;stroke:#008000;stroke-width:0.5;" x="277.2" xlink:href="#m29d9fc822c" y="100.39730493"/>
     <use style="fill:#008000;stroke:#008000;stroke-width:0.5;" x="271.246927178" xlink:href="#m29d9fc822c" y="102.111418816"/>
     <use style="fill:#008000;stroke:#008000;stroke-width:0.5;" x="265.746112125" xlink:href="#m29d9fc822c" y="107.784595355"/>
     <use style="fill:#008000;stroke:#008000;stroke-width:0.5;" x="260.643046269" xlink:href="#m29d9fc822c" y="109.535219892"/>
     <use style="fill:#008000;stroke:#008000;stroke-width:0.5;" x="255.891996329" xlink:href="#m29d9fc822c" y="114.452674024"/>
     <use style="fill:#008000;stroke:#008000;stroke-width:0.5;" x="251.454267683" xlink:href="#m29d9fc822c" y="116.231877025"/>
     <use style="fill:#008000;stroke:#008000;stroke-width:0.5;" x="247.296870125" xlink:href="#m29d9fc822c" y="117.629157521"/>
     <use style="fill:#008000;stroke:#008000;stroke-width:0.5;" x="243.391480273" xlink:href="#m29d9fc822c" y="120.613117258"/>
    </g>
   </g>
   <g id="line2d_9">
    <g clip-path="url(#p229452278b)">
     <use style="fill:#008000;stroke:#008000;stroke-width:0.5;" x="353.454223547" xlink:href="#m29d9fc822c" y="46.5479479769"/>
     <use style="fill:#008000;stroke:#008000;stroke-width:0.5;" x="339.518399343" xlink:href="#m29d9fc822c" y="39.2672650422"/>
     <use style="fill:#008000;stroke:#008000;stroke-width:0.5;" x="327.363055295" xlink:href="#m29d9fc822c" y="45.3048691701"/>
     <use style="fill:#008000;stroke:#008000;stroke-width:0.5;" x="316.638728177" xlink:href="#m29d9fc822c" y="50.8870426545"/>
     <use style="fill:#008000;stroke:#008000;stroke-width:0.5;" x="307.085011127" xlink:href="#m29d9fc822c" y="58.7827165084"/>
     <use style="fill:#008000;stroke:#008000;stroke-width:0.5;" x="298.50334967" xlink:href="#m29d9fc822c" y="65.4547463149"/>
     <use style="fill:#008000;stroke:#008000;stroke-width:0.5;" x="290.739350341" xlink:href="#m29d9fc822c" y="72.4856184567"/>
     <use style="fill:#008000;stroke:#008000;stroke-width:0.5;" x="283.670905223" xlink:href="#m29d9fc822c" y="78.6986868795"/>
     <use style="fill:#008000;stroke:#008000;stroke-width:0.5;" x="277.2" xlink:href="#m29d9fc822c" y="84.492125293"/>
     <use style="fill:#008000;stroke:#008000;stroke-width:0.5;" x="271.246927178" xlink:href="#m29d9fc822c" y="86.7176480705"/>
     <use style="fill:#008000;stroke:#008000;stroke-width:0.5;" x="265.746112125" xlink:href="#m29d9fc822c" y="92.8633815238"/>
     <use style="fill:#008000;stroke:#008000;stroke-width:0.5;" x="260.643046269" xlink:href="#m29d9fc822c" y="95.052393651"/>
     <use style="fill:#008000;stroke:#008000;stroke-width:0.5;" x="255.891996329" xlink:href="#m29d9fc822c" y="100.377994845"/>
     <use style="fill:#008000;stroke:#008000;stroke-width:0.5;" x="251.454267683" xlink:href="#m29d9fc822c" y="102.538428507"/>
     <use style="fill:#008000;stroke:#008000;stroke-width:0.5;" x="247.296870125" xlink:href="#m29d9fc822c" y="104.292857343"/>
     <use style="fill:#008000;stroke:#008000;stroke-width:0.5;" x="243.391480273" xlink:href="#m29d9fc822c" y="107.612316268"/>
    </g>
   </g>
   <g id="line2d_10">
    <path clip-path="url(#p229452278b)" d="M 353.454224 57.775912 
L 339.518399 49.896639 
L 327.363055 55.41213 
L 316.638728 60.533658 
L 307.085011 68.018968 
L 298.50335 74.322386 
L 290.73935 81.019769 
L 283.670905 86.929224 
L 277.2 92.444715 
L 271.246927 94.414533 
L 265.746112 100.323988 
L 260.643046 102.293807 
L 255.891996 107.415334 
L 251.454268 109.385153 
L 247.29687 110.961007 
L 243.39148 114.112717 
" style="fill:none;stroke:#008000;stroke-linecap:square;"/>
    <defs>
     <path d="M 0 3 
C 0.795609 3 1.55874 2.683901 2.12132 2.12132 
C 2.683901 1.55874 3 0.795609 3 0 
C 3 -0.795609 2.683901 -1.55874 2.12132 -2.12132 
C 1.55874 -2.683901 0.795609 -3 0 -3 
C -0.795609 -3 -1.55874 -2.683901 -2.12132 -2.12132 
C -2.683901 -1.55874 -3 -0.795609 -3 0 
C -3 0.795609 -2.683901 1.55874 -2.12132 2.12132 
C -1.55874 2.683901 -0.795609 3 0 3 
z
" id="m1da32cf43f" style="stroke:#000000;stroke-width:0.5;"/>
    </defs>
    <g clip-path="url(#p229452278b)">
     <use style="fill:#008000;stroke:#000000;stroke-width:0.5;" x="353.454223547" xlink:href="#m1da32cf43f" y="57.775912469"/>
     <use style="fill:#008000;stroke:#000000;stroke-width:0.5;" x="339.518399343" xlink:href="#m1da32cf43f" y="49.8966391412"/>
     <use style="fill:#008000;stroke:#000000;stroke-width:0.5;" x="327.363055295" xlink:href="#m1da32cf43f" y="55.4121304707"/>
     <use style="fill:#008000;stroke:#000000;stroke-width:0.5;" x="316.638728177" xlink:href="#m1da32cf43f" y="60.5336581338"/>
     <use style="fill:#008000;stroke:#000000;stroke-width:0.5;" x="307.085011127" xlink:href="#m1da32cf43f" y="68.0189677952"/>
     <use style="fill:#008000;stroke:#000000;stroke-width:0.5;" x="298.50334967" xlink:href="#m1da32cf43f" y="74.3223864575"/>
     <use style="fill:#008000;stroke:#000000;stroke-width:0.5;" x="290.739350341" xlink:href="#m1da32cf43f" y="81.0197687861"/>
     <use style="fill:#008000;stroke:#000000;stroke-width:0.5;" x="283.670905223" xlink:href="#m1da32cf43f" y="86.929223782"/>
     <use style="fill:#008000;stroke:#000000;stroke-width:0.5;" x="277.2" xlink:href="#m1da32cf43f" y="92.4447151115"/>
     <use style="fill:#008000;stroke:#000000;stroke-width:0.5;" x="271.246927178" xlink:href="#m1da32cf43f" y="94.4145334434"/>
     <use style="fill:#008000;stroke:#000000;stroke-width:0.5;" x="265.746112125" xlink:href="#m1da32cf43f" y="100.323988439"/>
     <use style="fill:#008000;stroke:#000000;stroke-width:0.5;" x="260.643046269" xlink:href="#m1da32cf43f" y="102.293806771"/>
     <use style="fill:#008000;stroke:#000000;stroke-width:0.5;" x="255.891996329" xlink:href="#m1da32cf43f" y="107.415334434"/>
     <use style="fill:#008000;stroke:#000000;stroke-width:0.5;" x="251.454267683" xlink:href="#m1da32cf43f" y="109.385152766"/>
     <use style="fill:#008000;stroke:#000000;stroke-width:0.5;" x="247.296870125" xlink:href="#m1da32cf43f" y="110.961007432"/>
     <use style="fill:#008000;stroke:#000000;stroke-width:0.5;" x="243.391480273" xlink:href="#m1da32cf43f" y="114.112716763"/>
    </g>
   </g>
   <g id="line2d_11">
    <path clip-path="url(#p229452278b)" d="M 54 252 
L 57.02479 250.738978 
L 60.04958 249.477956 
L 63.07437 248.216934 
L 66.099161 246.955912 
L 69.123951 245.69489 
L 72.148741 244.433868 
L 75.173531 243.172846 
L 78.198321 241.911824 
L 81.223111 240.650802 
L 84.247901 239.38978 
L 87.272692 238.128758 
L 90.297482 236.867736 
L 93.322272 235.606714 
L 96.347062 234.345692 
L 99.371852 233.084671 
L 102.396642 231.823649 
L 105.421432 230.562627 
L 108.446222 229.301605 
L 111.471013 228.040583 
L 114.495803 226.779561 
L 117.520593 225.518539 
L 120.545383 224.257517 
L 123.570173 222.996495 
L 126.594963 221.735473 
L 129.619753 220.474451 
L 132.644544 219.213429 
L 135.669334 217.952407 
L 138.694124 216.691385 
L 141.718914 215.430363 
L 144.743704 214.169341 
L 147.768494 212.908319 
L 150.793284 211.647297 
L 153.818075 210.386275 
L 156.842865 209.125253 
L 159.867655 207.864231 
L 162.892445 206.603209 
L 165.917235 205.342187 
L 168.942025 204.081165 
L 171.966815 202.820143 
L 174.991605 201.559121 
L 178.016396 200.298099 
L 181.041186 199.037077 
L 184.065976 197.776055 
L 187.090766 196.515033 
L 190.115556 195.254012 
L 193.140346 193.99299 
L 196.165136 192.731968 
L 199.189927 191.470946 
L 202.214717 190.209924 
L 205.239507 188.948902 
L 208.264297 187.68788 
L 211.289087 186.426858 
L 214.313877 185.165836 
L 217.338667 183.904814 
L 220.363458 182.643792 
L 223.388248 181.38277 
L 226.413038 180.121748 
L 229.437828 178.860726 
L 232.462618 177.599704 
L 235.487408 176.338682 
L 238.512198 175.07766 
L 241.536988 173.816638 
L 244.561779 172.555616 
L 247.586569 171.294594 
L 250.611359 170.033572 
L 253.636149 168.77255 
L 256.660939 167.511528 
L 259.685729 166.250506 
L 262.710519 164.989484 
L 265.73531 163.728462 
L 268.7601 162.46744 
L 271.78489 161.206418 
L 274.80968 159.945396 
L 277.83447 158.684375 
L 280.85926 157.423353 
L 283.88405 156.162331 
L 286.908841 154.901309 
L 289.933631 153.640287 
L 292.958421 152.379265 
L 295.983211 151.118243 
L 299.008001 149.857221 
L 302.032791 148.596199 
L 305.057581 147.335177 
L 308.082371 146.074155 
L 311.107162 144.813133 
L 314.131952 143.552111 
L 317.156742 142.291089 
L 320.181532 141.030067 
L 323.206322 139.769045 
L 326.231112 138.508023 
L 329.255902 137.247001 
L 332.280693 135.985979 
L 335.305483 134.724957 
L 338.330273 133.463935 
L 341.355063 132.202913 
L 344.379853 130.941891 
L 347.404643 129.680869 
L 350.429433 128.419847 
L 353.454224 127.158825 
" style="fill:none;stroke:#0000ff;stroke-dasharray:3.000000,5.000000,1.000000,5.000000;stroke-dashoffset:0.0;stroke-width:2.0;"/>
   </g>
   <g id="line2d_12">
    <path clip-path="url(#p229452278b)" d="M 54 252 
L 57.02479 249.840366 
L 60.04958 247.680732 
L 63.07437 245.521098 
L 66.099161 243.361463 
L 69.123951 241.201829 
L 72.148741 239.042195 
L 75.173531 236.882561 
L 78.198321 234.722927 
L 81.223111 232.563293 
L 84.247901 230.403659 
L 87.272692 228.244024 
L 90.297482 226.08439 
L 93.322272 223.924756 
L 96.347062 221.765122 
L 99.371852 219.605488 
L 102.396642 217.445854 
L 105.421432 215.286219 
L 108.446222 213.126585 
L 111.471013 210.966951 
L 114.495803 208.807317 
L 117.520593 206.647683 
L 120.545383 204.488049 
L 123.570173 202.328415 
L 126.594963 200.16878 
L 129.619753 198.009146 
L 132.644544 195.849512 
L 135.669334 193.689878 
L 138.694124 191.530244 
L 141.718914 189.37061 
L 144.743704 187.210976 
L 147.768494 185.051341 
L 150.793284 182.891707 
L 153.818075 180.732073 
L 156.842865 178.572439 
L 159.867655 176.412805 
L 162.892445 174.253171 
L 165.917235 172.093537 
L 168.942025 169.933902 
L 171.966815 167.774268 
L 174.991605 165.614634 
L 178.016396 163.455 
L 181.041186 161.295366 
L 184.065976 159.135732 
L 187.090766 156.976097 
L 190.115556 154.816463 
L 193.140346 152.656829 
L 196.165136 150.497195 
L 199.189927 148.337561 
L 202.214717 146.177927 
L 205.239507 144.018293 
L 208.264297 141.858658 
L 211.289087 139.699024 
L 214.313877 137.53939 
L 217.338667 135.379756 
L 220.363458 133.220122 
L 223.388248 131.060488 
L 226.413038 128.900854 
L 229.437828 126.741219 
L 232.462618 124.581585 
L 235.487408 122.421951 
L 238.512198 120.262317 
L 241.536988 118.102683 
L 244.561779 115.943049 
L 247.586569 113.783414 
L 250.611359 111.62378 
L 253.636149 109.464146 
L 256.660939 107.304512 
L 259.685729 105.144878 
L 262.710519 102.985244 
L 265.73531 100.82561 
L 268.7601 98.665975 
L 271.78489 96.506341 
L 274.80968 94.346707 
L 277.83447 92.187073 
L 280.85926 90.027439 
L 283.88405 87.867805 
L 286.908841 85.708171 
L 289.933631 83.548536 
L 292.958421 81.388902 
L 295.983211 79.229268 
L 299.008001 77.069634 
L 302.032791 74.91 
L 305.057581 72.750366 
L 308.082371 70.590732 
L 311.107162 68.431097 
L 314.131952 66.271463 
L 317.156742 64.111829 
L 320.181532 61.952195 
L 323.206322 59.792561 
L 326.231112 57.632927 
L 329.255902 55.473292 
L 332.280693 53.313658 
L 335.305483 51.154024 
L 338.330273 48.99439 
L 341.355063 46.834756 
L 344.379853 44.675122 
L 347.404643 42.515488 
L 350.429433 40.355853 
L 353.454224 38.196219 
" style="fill:none;stroke:#008000;stroke-dasharray:6.000000,6.000000;stroke-dashoffset:0.0;stroke-width:2.0;"/>
   </g>
   <g id="patch_3">
    <path d="M 54 28.8 
L 388.8 28.8 
" style="fill:none;stroke:#000000;stroke-linecap:square;stroke-linejoin:miter;"/>
   </g>
   <g id="patch_4">
    <path d="M 388.8 252 
L 388.8 28.8 
" style="fill:none;stroke:#000000;stroke-linecap:square;stroke-linejoin:miter;"/>
   </g>
   <g id="patch_5">
    <path d="M 54 252 
L 388.8 252 
" style="fill:none;stroke:#000000;stroke-linecap:square;stroke-linejoin:miter;"/>
   </g>
   <g id="patch_6">
    <path d="M 54 252 
L 54 28.8 
" style="fill:none;stroke:#000000;stroke-linecap:square;stroke-linejoin:miter;"/>
   </g>
   <g id="matplotlib.axis_1">
    <g id="xtick_1">
     <g id="line2d_13">
      <defs>
       <path d="M 0 0 
L 0 -4 
" id="m80911c9ffa" style="stroke:#000000;stroke-width:0.5;"/>
      </defs>
      <g>
       <use style="stroke:#000000;stroke-width:0.5;" x="54.0" xlink:href="#m80911c9ffa" y="252.0"/>
      </g>
     </g>
     <g id="line2d_14">
      <defs>
       <path d="M 0 0 
L 0 4 
" id="mfb529d5592" style="stroke:#000000;stroke-width:0.5;"/>
      </defs>
      <g>
       <use style="stroke:#000000;stroke-width:0.5;" x="54.0" xlink:href="#mfb529d5592" y="28.8"/>
      </g>
     </g>
     <g id="text_1">
      <!-- 0.000 -->
      <defs>
       <path d="M 31.78125 66.40625 
Q 24.171875 66.40625 20.328125 58.90625 
Q 16.5 51.421875 16.5 36.375 
Q 16.5 21.390625 20.328125 13.890625 
Q 24.171875 6.390625 31.78125 6.390625 
Q 39.453125 6.390625 43.28125 13.890625 
Q 47.125 21.390625 47.125 36.375 
Q 47.125 51.421875 43.28125 58.90625 
Q 39.453125 66.40625 31.78125 66.40625 
M 31.78125 74.21875 
Q 44.046875 74.21875 50.515625 64.515625 
Q 56.984375 54.828125 56.984375 36.375 
Q 56.984375 17.96875 50.515625 8.265625 
Q 44.046875 -1.421875 31.78125 -1.421875 
Q 19.53125 -1.421875 13.0625 8.265625 
Q 6.59375 17.96875 6.59375 36.375 
Q 6.59375 54.828125 13.0625 64.515625 
Q 19.53125 74.21875 31.78125 74.21875 
" id="BitstreamVeraSans-Roman-30"/>
       <path d="M 10.6875 12.40625 
L 21 12.40625 
L 21 0 
L 10.6875 0 
z
" id="BitstreamVeraSans-Roman-2e"/>
      </defs>
      <g transform="translate(39.6859375 263.5984375)scale(0.1 -0.1)">
       <use xlink:href="#BitstreamVeraSans-Roman-30"/>
       <use x="63.623046875" xlink:href="#BitstreamVeraSans-Roman-2e"/>
       <use x="95.41015625" xlink:href="#BitstreamVeraSans-Roman-30"/>
       <use x="159.033203125" xlink:href="#BitstreamVeraSans-Roman-30"/>
       <use x="222.65625" xlink:href="#BitstreamVeraSans-Roman-30"/>
      </g>
     </g>
    </g>
    <g id="xtick_2">
     <g id="line2d_15">
      <g>
       <use style="stroke:#000000;stroke-width:0.5;" x="120.96" xlink:href="#m80911c9ffa" y="252.0"/>
      </g>
     </g>
     <g id="line2d_16">
      <g>
       <use style="stroke:#000000;stroke-width:0.5;" x="120.96" xlink:href="#mfb529d5592" y="28.8"/>
      </g>
     </g>
     <g id="text_2">
      <!-- 0.005 -->
      <defs>
       <path d="M 10.796875 72.90625 
L 49.515625 72.90625 
L 49.515625 64.59375 
L 19.828125 64.59375 
L 19.828125 46.734375 
Q 21.96875 47.46875 24.109375 47.828125 
Q 26.265625 48.1875 28.421875 48.1875 
Q 40.625 48.1875 47.75 41.5 
Q 54.890625 34.8125 54.890625 23.390625 
Q 54.890625 11.625 47.5625 5.09375 
Q 40.234375 -1.421875 26.90625 -1.421875 
Q 22.3125 -1.421875 17.546875 -0.640625 
Q 12.796875 0.140625 7.71875 1.703125 
L 7.71875 11.625 
Q 12.109375 9.234375 16.796875 8.0625 
Q 21.484375 6.890625 26.703125 6.890625 
Q 35.15625 6.890625 40.078125 11.328125 
Q 45.015625 15.765625 45.015625 23.390625 
Q 45.015625 31 40.078125 35.4375 
Q 35.15625 39.890625 26.703125 39.890625 
Q 22.75 39.890625 18.8125 39.015625 
Q 14.890625 38.140625 10.796875 36.28125 
z
" id="BitstreamVeraSans-Roman-35"/>
      </defs>
      <g transform="translate(106.6459375 263.5984375)scale(0.1 -0.1)">
       <use xlink:href="#BitstreamVeraSans-Roman-30"/>
       <use x="63.623046875" xlink:href="#BitstreamVeraSans-Roman-2e"/>
       <use x="95.41015625" xlink:href="#BitstreamVeraSans-Roman-30"/>
       <use x="159.033203125" xlink:href="#BitstreamVeraSans-Roman-30"/>
       <use x="222.65625" xlink:href="#BitstreamVeraSans-Roman-35"/>
      </g>
     </g>
    </g>
    <g id="xtick_3">
     <g id="line2d_17">
      <g>
       <use style="stroke:#000000;stroke-width:0.5;" x="187.92" xlink:href="#m80911c9ffa" y="252.0"/>
      </g>
     </g>
     <g id="line2d_18">
      <g>
       <use style="stroke:#000000;stroke-width:0.5;" x="187.92" xlink:href="#mfb529d5592" y="28.8"/>
      </g>
     </g>
     <g id="text_3">
      <!-- 0.010 -->
      <defs>
       <path d="M 12.40625 8.296875 
L 28.515625 8.296875 
L 28.515625 63.921875 
L 10.984375 60.40625 
L 10.984375 69.390625 
L 28.421875 72.90625 
L 38.28125 72.90625 
L 38.28125 8.296875 
L 54.390625 8.296875 
L 54.390625 0 
L 12.40625 0 
z
" id="BitstreamVeraSans-Roman-31"/>
      </defs>
      <g transform="translate(173.6059375 263.5984375)scale(0.1 -0.1)">
       <use xlink:href="#BitstreamVeraSans-Roman-30"/>
       <use x="63.623046875" xlink:href="#BitstreamVeraSans-Roman-2e"/>
       <use x="95.41015625" xlink:href="#BitstreamVeraSans-Roman-30"/>
       <use x="159.033203125" xlink:href="#BitstreamVeraSans-Roman-31"/>
       <use x="222.65625" xlink:href="#BitstreamVeraSans-Roman-30"/>
      </g>
     </g>
    </g>
    <g id="xtick_4">
     <g id="line2d_19">
      <g>
       <use style="stroke:#000000;stroke-width:0.5;" x="254.88" xlink:href="#m80911c9ffa" y="252.0"/>
      </g>
     </g>
     <g id="line2d_20">
      <g>
       <use style="stroke:#000000;stroke-width:0.5;" x="254.88" xlink:href="#mfb529d5592" y="28.8"/>
      </g>
     </g>
     <g id="text_4">
      <!-- 0.015 -->
      <g transform="translate(240.5659375 263.5984375)scale(0.1 -0.1)">
       <use xlink:href="#BitstreamVeraSans-Roman-30"/>
       <use x="63.623046875" xlink:href="#BitstreamVeraSans-Roman-2e"/>
       <use x="95.41015625" xlink:href="#BitstreamVeraSans-Roman-30"/>
       <use x="159.033203125" xlink:href="#BitstreamVeraSans-Roman-31"/>
       <use x="222.65625" xlink:href="#BitstreamVeraSans-Roman-35"/>
      </g>
     </g>
    </g>
    <g id="xtick_5">
     <g id="line2d_21">
      <g>
       <use style="stroke:#000000;stroke-width:0.5;" x="321.84" xlink:href="#m80911c9ffa" y="252.0"/>
      </g>
     </g>
     <g id="line2d_22">
      <g>
       <use style="stroke:#000000;stroke-width:0.5;" x="321.84" xlink:href="#mfb529d5592" y="28.8"/>
      </g>
     </g>
     <g id="text_5">
      <!-- 0.020 -->
      <defs>
       <path d="M 19.1875 8.296875 
L 53.609375 8.296875 
L 53.609375 0 
L 7.328125 0 
L 7.328125 8.296875 
Q 12.9375 14.109375 22.625 23.890625 
Q 32.328125 33.6875 34.8125 36.53125 
Q 39.546875 41.84375 41.421875 45.53125 
Q 43.3125 49.21875 43.3125 52.78125 
Q 43.3125 58.59375 39.234375 62.25 
Q 35.15625 65.921875 28.609375 65.921875 
Q 23.96875 65.921875 18.8125 64.3125 
Q 13.671875 62.703125 7.8125 59.421875 
L 7.8125 69.390625 
Q 13.765625 71.78125 18.9375 73 
Q 24.125 74.21875 28.421875 74.21875 
Q 39.75 74.21875 46.484375 68.546875 
Q 53.21875 62.890625 53.21875 53.421875 
Q 53.21875 48.921875 51.53125 44.890625 
Q 49.859375 40.875 45.40625 35.40625 
Q 44.1875 33.984375 37.640625 27.21875 
Q 31.109375 20.453125 19.1875 8.296875 
" id="BitstreamVeraSans-Roman-32"/>
      </defs>
      <g transform="translate(307.5259375 263.5984375)scale(0.1 -0.1)">
       <use xlink:href="#BitstreamVeraSans-Roman-30"/>
       <use x="63.623046875" xlink:href="#BitstreamVeraSans-Roman-2e"/>
       <use x="95.41015625" xlink:href="#BitstreamVeraSans-Roman-30"/>
       <use x="159.033203125" xlink:href="#BitstreamVeraSans-Roman-32"/>
       <use x="222.65625" xlink:href="#BitstreamVeraSans-Roman-30"/>
      </g>
     </g>
    </g>
    <g id="xtick_6">
     <g id="line2d_23">
      <g>
       <use style="stroke:#000000;stroke-width:0.5;" x="388.8" xlink:href="#m80911c9ffa" y="252.0"/>
      </g>
     </g>
     <g id="line2d_24">
      <g>
       <use style="stroke:#000000;stroke-width:0.5;" x="388.8" xlink:href="#mfb529d5592" y="28.8"/>
      </g>
     </g>
     <g id="text_6">
      <!-- 0.025 -->
      <g transform="translate(374.4859375 263.5984375)scale(0.1 -0.1)">
       <use xlink:href="#BitstreamVeraSans-Roman-30"/>
       <use x="63.623046875" xlink:href="#BitstreamVeraSans-Roman-2e"/>
       <use x="95.41015625" xlink:href="#BitstreamVeraSans-Roman-30"/>
       <use x="159.033203125" xlink:href="#BitstreamVeraSans-Roman-32"/>
       <use x="222.65625" xlink:href="#BitstreamVeraSans-Roman-35"/>
      </g>
     </g>
    </g>
    <g id="text_7">
     <!-- $\frac{1}{\sqrt{V}}$ -->
     <defs>
      <path d="M 42.390625 -116.015625 
L 19.828125 -63.484375 
L 12.796875 -68.890625 
L 10.984375 -67.09375 
L 25.296875 -56 
L 46.390625 -105.078125 
L 98.296875 3.078125 
Q 98.78125 4 100 4 
Q 100.828125 4 101.40625 3.40625 
Q 102 2.828125 102 2 
Q 102 1.515625 101.90625 1.3125 
L 46.09375 -115.09375 
Q 45.703125 -116.015625 44.578125 -116.015625 
z
" id="Cmex10-70"/>
      <path d="M 9.28125 0 
L 9.28125 3.515625 
Q 21.78125 3.515625 21.78125 6.6875 
L 21.78125 59.1875 
Q 16.609375 56.6875 8.6875 56.6875 
L 8.6875 60.203125 
Q 20.953125 60.203125 27.203125 66.609375 
L 28.609375 66.609375 
Q 28.953125 66.609375 29.265625 66.328125 
Q 29.59375 66.0625 29.59375 65.71875 
L 29.59375 6.6875 
Q 29.59375 3.515625 42.09375 3.515625 
L 42.09375 0 
z
" id="Cmr10-31"/>
      <path d="M 22.015625 -1.125 
L 14.015625 62.59375 
Q 13.28125 64.796875 6.5 64.796875 
Q 5.515625 64.796875 5.515625 66.109375 
Q 5.71875 67.1875 6 67.75 
Q 6.296875 68.3125 7.171875 68.3125 
L 31.59375 68.3125 
Q 32.125 68.3125 32.375 67.921875 
Q 32.625 67.53125 32.625 67 
Q 32.234375 64.796875 31.296875 64.796875 
Q 23.484375 64.796875 23 62.109375 
L 29.59375 9.8125 
L 60.40625 58.984375 
Q 61.28125 60.640625 61.28125 61.625 
Q 61.28125 63.375 59.6875 64.078125 
Q 58.109375 64.796875 56 64.796875 
Q 54.984375 64.796875 54.984375 66.109375 
Q 55.171875 66.890625 55.3125 67.328125 
Q 55.46875 67.78125 55.765625 68.046875 
Q 56.0625 68.3125 56.6875 68.3125 
L 75.984375 68.3125 
Q 76.90625 68.3125 76.90625 67 
Q 76.515625 64.796875 75.59375 64.796875 
Q 68.0625 64.796875 63.8125 58.203125 
Q 63.625 58.015625 63.484375 58.015625 
L 26.609375 -1.125 
Q 25.875 -2.203125 24.703125 -2.203125 
L 23.296875 -2.203125 
Q 22.171875 -2.203125 22.015625 -1.125 
" id="Cmmi10-56"/>
     </defs>
     <g transform="translate(211.575 283.428125)scale(0.15 -0.15)">
      <use transform="translate(41.0 38.3734375)scale(0.7)" xlink:href="#Cmr10-31"/>
      <use transform="translate(0.0 0.546875)scale(0.593555526624)" xlink:href="#Cmex10-70"/>
      <use transform="translate(68.096875 -67.0703125)scale(0.7)" xlink:href="#Cmmi10-56"/>
      <path d="M 0 13.373437 
L 0 19.623437 
L 117.657422 19.623437 
L 117.657422 13.373437 
L 0 13.373437 
z
"/>
      <path d="M 59.346875 -1.626563 
L 59.346875 2.748437 
L 117.657422 2.748437 
L 117.657422 -1.626563 
L 59.346875 -1.626563 
z
"/>
     </g>
    </g>
   </g>
   <g id="matplotlib.axis_2">
    <g id="ytick_1">
     <g id="line2d_25">
      <defs>
       <path d="M 0 0 
L 4 0 
" id="m643b833e21" style="stroke:#000000;stroke-width:0.5;"/>
      </defs>
      <g>
       <use style="stroke:#000000;stroke-width:0.5;" x="54.0" xlink:href="#m643b833e21" y="252.0"/>
      </g>
     </g>
     <g id="line2d_26">
      <defs>
       <path d="M 0 0 
L -4 0 
" id="m3d7943e5f4" style="stroke:#000000;stroke-width:0.5;"/>
      </defs>
      <g>
       <use style="stroke:#000000;stroke-width:0.5;" x="388.8" xlink:href="#m3d7943e5f4" y="252.0"/>
      </g>
     </g>
     <g id="text_8">
      <!-- 0.00 -->
      <g transform="translate(27.734375 254.759375)scale(0.1 -0.1)">
       <use xlink:href="#BitstreamVeraSans-Roman-30"/>
       <use x="63.623046875" xlink:href="#BitstreamVeraSans-Roman-2e"/>
       <use x="95.41015625" xlink:href="#BitstreamVeraSans-Roman-30"/>
       <use x="159.033203125" xlink:href="#BitstreamVeraSans-Roman-30"/>
      </g>
     </g>
    </g>
    <g id="ytick_2">
     <g id="line2d_27">
      <g>
       <use style="stroke:#000000;stroke-width:0.5;" x="54.0" xlink:href="#m643b833e21" y="220.114285714"/>
      </g>
     </g>
     <g id="line2d_28">
      <g>
       <use style="stroke:#000000;stroke-width:0.5;" x="388.8" xlink:href="#m3d7943e5f4" y="220.114285714"/>
      </g>
     </g>
     <g id="text_9">
      <!-- 0.01 -->
      <g transform="translate(27.734375 222.873660714)scale(0.1 -0.1)">
       <use xlink:href="#BitstreamVeraSans-Roman-30"/>
       <use x="63.623046875" xlink:href="#BitstreamVeraSans-Roman-2e"/>
       <use x="95.41015625" xlink:href="#BitstreamVeraSans-Roman-30"/>
       <use x="159.033203125" xlink:href="#BitstreamVeraSans-Roman-31"/>
      </g>
     </g>
    </g>
    <g id="ytick_3">
     <g id="line2d_29">
      <g>
       <use style="stroke:#000000;stroke-width:0.5;" x="54.0" xlink:href="#m643b833e21" y="188.228571429"/>
      </g>
     </g>
     <g id="line2d_30">
      <g>
       <use style="stroke:#000000;stroke-width:0.5;" x="388.8" xlink:href="#m3d7943e5f4" y="188.228571429"/>
      </g>
     </g>
     <g id="text_10">
      <!-- 0.02 -->
      <g transform="translate(27.734375 190.987946429)scale(0.1 -0.1)">
       <use xlink:href="#BitstreamVeraSans-Roman-30"/>
       <use x="63.623046875" xlink:href="#BitstreamVeraSans-Roman-2e"/>
       <use x="95.41015625" xlink:href="#BitstreamVeraSans-Roman-30"/>
       <use x="159.033203125" xlink:href="#BitstreamVeraSans-Roman-32"/>
      </g>
     </g>
    </g>
    <g id="ytick_4">
     <g id="line2d_31">
      <g>
       <use style="stroke:#000000;stroke-width:0.5;" x="54.0" xlink:href="#m643b833e21" y="156.342857143"/>
      </g>
     </g>
     <g id="line2d_32">
      <g>
       <use style="stroke:#000000;stroke-width:0.5;" x="388.8" xlink:href="#m3d7943e5f4" y="156.342857143"/>
      </g>
     </g>
     <g id="text_11">
      <!-- 0.03 -->
      <defs>
       <path d="M 40.578125 39.3125 
Q 47.65625 37.796875 51.625 33 
Q 55.609375 28.21875 55.609375 21.1875 
Q 55.609375 10.40625 48.1875 4.484375 
Q 40.765625 -1.421875 27.09375 -1.421875 
Q 22.515625 -1.421875 17.65625 -0.515625 
Q 12.796875 0.390625 7.625 2.203125 
L 7.625 11.71875 
Q 11.71875 9.328125 16.59375 8.109375 
Q 21.484375 6.890625 26.8125 6.890625 
Q 36.078125 6.890625 40.9375 10.546875 
Q 45.796875 14.203125 45.796875 21.1875 
Q 45.796875 27.640625 41.28125 31.265625 
Q 36.765625 34.90625 28.71875 34.90625 
L 20.21875 34.90625 
L 20.21875 43.015625 
L 29.109375 43.015625 
Q 36.375 43.015625 40.234375 45.921875 
Q 44.09375 48.828125 44.09375 54.296875 
Q 44.09375 59.90625 40.109375 62.90625 
Q 36.140625 65.921875 28.71875 65.921875 
Q 24.65625 65.921875 20.015625 65.03125 
Q 15.375 64.15625 9.8125 62.3125 
L 9.8125 71.09375 
Q 15.4375 72.65625 20.34375 73.4375 
Q 25.25 74.21875 29.59375 74.21875 
Q 40.828125 74.21875 47.359375 69.109375 
Q 53.90625 64.015625 53.90625 55.328125 
Q 53.90625 49.265625 50.4375 45.09375 
Q 46.96875 40.921875 40.578125 39.3125 
" id="BitstreamVeraSans-Roman-33"/>
      </defs>
      <g transform="translate(27.734375 159.102232143)scale(0.1 -0.1)">
       <use xlink:href="#BitstreamVeraSans-Roman-30"/>
       <use x="63.623046875" xlink:href="#BitstreamVeraSans-Roman-2e"/>
       <use x="95.41015625" xlink:href="#BitstreamVeraSans-Roman-30"/>
       <use x="159.033203125" xlink:href="#BitstreamVeraSans-Roman-33"/>
      </g>
     </g>
    </g>
    <g id="ytick_5">
     <g id="line2d_33">
      <g>
       <use style="stroke:#000000;stroke-width:0.5;" x="54.0" xlink:href="#m643b833e21" y="124.457142857"/>
      </g>
     </g>
     <g id="line2d_34">
      <g>
       <use style="stroke:#000000;stroke-width:0.5;" x="388.8" xlink:href="#m3d7943e5f4" y="124.457142857"/>
      </g>
     </g>
     <g id="text_12">
      <!-- 0.04 -->
      <defs>
       <path d="M 37.796875 64.3125 
L 12.890625 25.390625 
L 37.796875 25.390625 
z
M 35.203125 72.90625 
L 47.609375 72.90625 
L 47.609375 25.390625 
L 58.015625 25.390625 
L 58.015625 17.1875 
L 47.609375 17.1875 
L 47.609375 0 
L 37.796875 0 
L 37.796875 17.1875 
L 4.890625 17.1875 
L 4.890625 26.703125 
z
" id="BitstreamVeraSans-Roman-34"/>
      </defs>
      <g transform="translate(27.734375 127.216517857)scale(0.1 -0.1)">
       <use xlink:href="#BitstreamVeraSans-Roman-30"/>
       <use x="63.623046875" xlink:href="#BitstreamVeraSans-Roman-2e"/>
       <use x="95.41015625" xlink:href="#BitstreamVeraSans-Roman-30"/>
       <use x="159.033203125" xlink:href="#BitstreamVeraSans-Roman-34"/>
      </g>
     </g>
    </g>
    <g id="ytick_6">
     <g id="line2d_35">
      <g>
       <use style="stroke:#000000;stroke-width:0.5;" x="54.0" xlink:href="#m643b833e21" y="92.5714285714"/>
      </g>
     </g>
     <g id="line2d_36">
      <g>
       <use style="stroke:#000000;stroke-width:0.5;" x="388.8" xlink:href="#m3d7943e5f4" y="92.5714285714"/>
      </g>
     </g>
     <g id="text_13">
      <!-- 0.05 -->
      <g transform="translate(27.734375 95.3308035714)scale(0.1 -0.1)">
       <use xlink:href="#BitstreamVeraSans-Roman-30"/>
       <use x="63.623046875" xlink:href="#BitstreamVeraSans-Roman-2e"/>
       <use x="95.41015625" xlink:href="#BitstreamVeraSans-Roman-30"/>
       <use x="159.033203125" xlink:href="#BitstreamVeraSans-Roman-35"/>
      </g>
     </g>
    </g>
    <g id="ytick_7">
     <g id="line2d_37">
      <g>
       <use style="stroke:#000000;stroke-width:0.5;" x="54.0" xlink:href="#m643b833e21" y="60.6857142857"/>
      </g>
     </g>
     <g id="line2d_38">
      <g>
       <use style="stroke:#000000;stroke-width:0.5;" x="388.8" xlink:href="#m3d7943e5f4" y="60.6857142857"/>
      </g>
     </g>
     <g id="text_14">
      <!-- 0.06 -->
      <defs>
       <path d="M 33.015625 40.375 
Q 26.375 40.375 22.484375 35.828125 
Q 18.609375 31.296875 18.609375 23.390625 
Q 18.609375 15.53125 22.484375 10.953125 
Q 26.375 6.390625 33.015625 6.390625 
Q 39.65625 6.390625 43.53125 10.953125 
Q 47.40625 15.53125 47.40625 23.390625 
Q 47.40625 31.296875 43.53125 35.828125 
Q 39.65625 40.375 33.015625 40.375 
M 52.59375 71.296875 
L 52.59375 62.3125 
Q 48.875 64.0625 45.09375 64.984375 
Q 41.3125 65.921875 37.59375 65.921875 
Q 27.828125 65.921875 22.671875 59.328125 
Q 17.53125 52.734375 16.796875 39.40625 
Q 19.671875 43.65625 24.015625 45.921875 
Q 28.375 48.1875 33.59375 48.1875 
Q 44.578125 48.1875 50.953125 41.515625 
Q 57.328125 34.859375 57.328125 23.390625 
Q 57.328125 12.15625 50.6875 5.359375 
Q 44.046875 -1.421875 33.015625 -1.421875 
Q 20.359375 -1.421875 13.671875 8.265625 
Q 6.984375 17.96875 6.984375 36.375 
Q 6.984375 53.65625 15.1875 63.9375 
Q 23.390625 74.21875 37.203125 74.21875 
Q 40.921875 74.21875 44.703125 73.484375 
Q 48.484375 72.75 52.59375 71.296875 
" id="BitstreamVeraSans-Roman-36"/>
      </defs>
      <g transform="translate(27.734375 63.4450892857)scale(0.1 -0.1)">
       <use xlink:href="#BitstreamVeraSans-Roman-30"/>
       <use x="63.623046875" xlink:href="#BitstreamVeraSans-Roman-2e"/>
       <use x="95.41015625" xlink:href="#BitstreamVeraSans-Roman-30"/>
       <use x="159.033203125" xlink:href="#BitstreamVeraSans-Roman-36"/>
      </g>
     </g>
    </g>
    <g id="ytick_8">
     <g id="line2d_39">
      <g>
       <use style="stroke:#000000;stroke-width:0.5;" x="54.0" xlink:href="#m643b833e21" y="28.8"/>
      </g>
     </g>
     <g id="line2d_40">
      <g>
       <use style="stroke:#000000;stroke-width:0.5;" x="388.8" xlink:href="#m3d7943e5f4" y="28.8"/>
      </g>
     </g>
     <g id="text_15">
      <!-- 0.07 -->
      <defs>
       <path d="M 8.203125 72.90625 
L 55.078125 72.90625 
L 55.078125 68.703125 
L 28.609375 0 
L 18.3125 0 
L 43.21875 64.59375 
L 8.203125 64.59375 
z
" id="BitstreamVeraSans-Roman-37"/>
      </defs>
      <g transform="translate(27.734375 31.559375)scale(0.1 -0.1)">
       <use xlink:href="#BitstreamVeraSans-Roman-30"/>
       <use x="63.623046875" xlink:href="#BitstreamVeraSans-Roman-2e"/>
       <use x="95.41015625" xlink:href="#BitstreamVeraSans-Roman-30"/>
       <use x="159.033203125" xlink:href="#BitstreamVeraSans-Roman-37"/>
      </g>
     </g>
    </g>
    <g id="text_16">
     <!-- $D(m)$ -->
     <defs>
      <path d="M 31 -24.8125 
Q 25.4375 -20.40625 21.40625 -14.71875 
Q 17.390625 -9.03125 14.8125 -2.578125 
Q 12.25 3.859375 10.984375 10.890625 
Q 9.71875 17.921875 9.71875 25 
Q 9.71875 32.171875 10.984375 39.203125 
Q 12.25 46.234375 14.859375 52.734375 
Q 17.484375 59.234375 21.53125 64.890625 
Q 25.59375 70.5625 31 74.8125 
Q 31 75 31.5 75 
L 32.421875 75 
Q 32.71875 75 32.953125 74.734375 
Q 33.203125 74.46875 33.203125 74.125 
Q 33.203125 73.6875 33.015625 73.484375 
Q 28.125 68.703125 24.875 63.234375 
Q 21.625 57.765625 19.640625 51.578125 
Q 17.671875 45.40625 16.796875 38.78125 
Q 15.921875 32.171875 15.921875 25 
Q 15.921875 -6.78125 32.90625 -23.296875 
Q 33.203125 -23.578125 33.203125 -24.125 
Q 33.203125 -24.359375 32.9375 -24.671875 
Q 32.671875 -25 32.421875 -25 
L 31.5 -25 
Q 31 -25 31 -24.8125 
" id="Cmr10-28"/>
      <path d="M 6.5 -25 
Q 5.609375 -25 5.609375 -24.125 
Q 5.609375 -23.6875 5.8125 -23.484375 
Q 22.90625 -6.78125 22.90625 25 
Q 22.90625 56.78125 6 73.296875 
Q 5.609375 73.53125 5.609375 74.125 
Q 5.609375 74.46875 5.875 74.734375 
Q 6.15625 75 6.5 75 
L 7.421875 75 
Q 7.71875 75 7.90625 74.8125 
Q 15.09375 69.140625 19.875 61.03125 
Q 24.65625 52.9375 26.875 43.75 
Q 29.109375 34.578125 29.109375 25 
Q 29.109375 17.921875 27.90625 11.0625 
Q 26.703125 4.203125 24.09375 -2.453125 
Q 21.484375 -9.125 17.484375 -14.765625 
Q 13.484375 -20.40625 7.90625 -24.8125 
Q 7.71875 -25 7.421875 -25 
z
" id="Cmr10-29"/>
      <path d="M 4.890625 0 
Q 3.90625 0 3.90625 1.3125 
Q 3.953125 1.5625 4.09375 2.171875 
Q 4.25 2.78125 4.515625 3.140625 
Q 4.78125 3.515625 5.171875 3.515625 
Q 11.28125 3.515625 13.71875 4.203125 
Q 14.984375 4.640625 15.578125 6.890625 
L 29.296875 61.8125 
Q 29.5 62.796875 29.5 63.1875 
Q 29.5 64.265625 28.328125 64.40625 
Q 26.421875 64.796875 21.09375 64.796875 
Q 20.125 64.796875 20.125 66.109375 
Q 20.171875 66.359375 20.3125 66.96875 
Q 20.453125 67.578125 20.71875 67.9375 
Q 21 68.3125 21.390625 68.3125 
L 57.328125 68.3125 
Q 64.3125 68.3125 69.53125 64.921875 
Q 74.75 61.53125 77.53125 55.78125 
Q 80.328125 50.046875 80.328125 43.109375 
Q 80.328125 35.453125 77.140625 27.78125 
Q 73.96875 20.125 68.25 13.765625 
Q 62.546875 7.421875 55.21875 3.703125 
Q 47.90625 0 40.1875 0 
z
M 23.578125 4.296875 
Q 23.578125 3.515625 27 3.515625 
L 38.625 3.515625 
Q 44.1875 3.515625 49.359375 5.8125 
Q 54.546875 8.109375 58.59375 12.109375 
Q 62.359375 15.875 65.234375 21.96875 
Q 68.109375 28.078125 69.703125 34.71875 
Q 71.296875 41.359375 71.296875 46.921875 
Q 71.296875 50.984375 70.09375 54.25 
Q 68.890625 57.515625 66.71875 59.859375 
Q 64.546875 62.203125 61.28125 63.5 
Q 58.015625 64.796875 53.90625 64.796875 
L 42.921875 64.796875 
Q 40.1875 64.796875 39.296875 64.328125 
Q 38.421875 63.875 37.703125 61.375 
L 24.03125 6.5 
Q 23.578125 5.28125 23.578125 4.296875 
" id="Cmmi10-44"/>
      <path d="M 7.71875 1.703125 
Q 7.71875 2.296875 7.8125 2.59375 
L 15.28125 32.421875 
Q 16.015625 35.203125 16.015625 37.3125 
Q 16.015625 41.609375 13.09375 41.609375 
Q 9.96875 41.609375 8.453125 37.859375 
Q 6.9375 34.125 5.515625 28.421875 
Q 5.515625 28.125 5.21875 27.953125 
Q 4.9375 27.78125 4.6875 27.78125 
L 3.515625 27.78125 
Q 3.171875 27.78125 2.921875 28.140625 
Q 2.6875 28.515625 2.6875 28.8125 
Q 3.765625 33.15625 4.765625 36.171875 
Q 5.765625 39.203125 7.890625 41.6875 
Q 10.015625 44.1875 13.1875 44.1875 
Q 16.9375 44.1875 19.8125 41.8125 
Q 22.703125 39.453125 22.703125 35.796875 
Q 25.6875 39.703125 29.6875 41.9375 
Q 33.6875 44.1875 38.1875 44.1875 
Q 42.921875 44.1875 46.359375 41.765625 
Q 49.8125 39.359375 49.8125 34.90625 
Q 52.875 39.265625 57 41.71875 
Q 61.140625 44.1875 66.015625 44.1875 
Q 71.1875 44.1875 74.328125 41.375 
Q 77.484375 38.578125 77.484375 33.40625 
Q 77.484375 29.296875 75.65625 23.484375 
Q 73.828125 17.671875 71.09375 10.5 
Q 69.671875 7.03125 69.671875 4.5 
Q 69.671875 1.515625 72.015625 1.515625 
Q 75.921875 1.515625 78.515625 5.703125 
Q 81.109375 9.90625 82.171875 14.703125 
Q 82.46875 15.28125 83.015625 15.28125 
L 84.1875 15.28125 
Q 84.578125 15.28125 84.84375 15.015625 
Q 85.109375 14.75 85.109375 14.40625 
Q 85.109375 14.3125 85.015625 14.109375 
Q 83.640625 8.453125 80.25 3.65625 
Q 76.859375 -1.125 71.78125 -1.125 
Q 68.265625 -1.125 65.765625 1.296875 
Q 63.28125 3.71875 63.28125 7.171875 
Q 63.28125 8.9375 64.109375 11.078125 
Q 66.9375 18.609375 68.8125 24.515625 
Q 70.703125 30.421875 70.703125 34.90625 
Q 70.703125 37.703125 69.578125 39.65625 
Q 68.453125 41.609375 65.828125 41.609375 
Q 60.359375 41.609375 56.34375 38.25 
Q 52.34375 34.90625 49.421875 29.390625 
Q 49.21875 28.421875 49.125 27.875 
L 42.671875 2.203125 
Q 42.328125 0.828125 41.125 -0.140625 
Q 39.9375 -1.125 38.484375 -1.125 
Q 37.3125 -1.125 36.40625 -0.34375 
Q 35.5 0.4375 35.5 1.703125 
Q 35.5 2.296875 35.59375 2.59375 
L 42 28.078125 
Q 43.015625 32.171875 43.015625 34.90625 
Q 43.015625 37.703125 41.859375 39.65625 
Q 40.71875 41.609375 37.984375 41.609375 
Q 34.328125 41.609375 31.25 39.984375 
Q 28.171875 38.375 25.875 35.71875 
Q 23.578125 33.0625 21.6875 29.390625 
L 14.890625 2.203125 
Q 14.546875 0.828125 13.34375 -0.140625 
Q 12.15625 -1.125 10.6875 -1.125 
Q 9.46875 -1.125 8.59375 -0.34375 
Q 7.71875 0.4375 7.71875 1.703125 
" id="Cmmi10-6d"/>
     </defs>
     <g transform="translate(18.984375 159.075)rotate(-90.0)scale(0.15 -0.15)">
      <use xlink:href="#Cmmi10-44"/>
      <use transform="translate(82.71484375 0.0)" xlink:href="#Cmr10-28"/>
      <use transform="translate(121.533203125 0.0)" xlink:href="#Cmmi10-6d"/>
      <use transform="translate(209.326171875 0.0)" xlink:href="#Cmr10-29"/>
     </g>
    </g>
   </g>
   <g id="legend_1">
    <g id="patch_7">
     <path d="M 60 76.56 
L 245.04 76.56 
L 245.04 34.8 
L 60 34.8 
z
" style="fill:#ffffff;stroke:#000000;stroke-linejoin:miter;"/>
    </g>
    <g id="line2d_41">
     <path d="M 68.4 45.984375 
L 85.2 45.984375 
" style="fill:none;stroke:#0000ff;stroke-dasharray:3.000000,5.000000,1.000000,5.000000;stroke-dashoffset:0.0;stroke-width:2.0;"/>
    </g>
    <g id="line2d_42"/>
    <g id="text_17">
     <!-- $D_1=1.751 V^{-1/2}$, $r^2=0.97$ -->
     <defs>
      <path d="M 4.984375 0 
L 4.984375 2.6875 
Q 4.984375 2.9375 5.171875 3.21875 
L 20.703125 20.40625 
Q 24.21875 24.21875 26.40625 26.796875 
Q 28.609375 29.390625 30.75 32.765625 
Q 32.90625 36.140625 34.15625 39.625 
Q 35.40625 43.109375 35.40625 47.015625 
Q 35.40625 51.125 33.890625 54.859375 
Q 32.375 58.59375 29.375 60.84375 
Q 26.375 63.09375 22.125 63.09375 
Q 17.78125 63.09375 14.3125 60.46875 
Q 10.84375 57.859375 9.421875 53.71875 
Q 9.8125 53.8125 10.5 53.8125 
Q 12.75 53.8125 14.328125 52.296875 
Q 15.921875 50.78125 15.921875 48.390625 
Q 15.921875 46.09375 14.328125 44.5 
Q 12.75 42.921875 10.5 42.921875 
Q 8.15625 42.921875 6.5625 44.546875 
Q 4.984375 46.1875 4.984375 48.390625 
Q 4.984375 52.15625 6.390625 55.4375 
Q 7.8125 58.734375 10.46875 61.296875 
Q 13.140625 63.875 16.484375 65.234375 
Q 19.828125 66.609375 23.578125 66.609375 
Q 29.296875 66.609375 34.21875 64.1875 
Q 39.15625 61.765625 42.03125 57.34375 
Q 44.921875 52.9375 44.921875 47.015625 
Q 44.921875 42.671875 43.015625 38.765625 
Q 41.109375 34.859375 38.125 31.65625 
Q 35.15625 28.46875 30.515625 24.40625 
Q 25.875 20.359375 24.421875 19 
L 13.09375 8.109375 
L 22.703125 8.109375 
Q 29.78125 8.109375 34.546875 8.21875 
Q 39.3125 8.34375 39.59375 8.59375 
Q 40.765625 9.859375 42 17.828125 
L 44.921875 17.828125 
L 42.09375 0 
z
" id="Cmr10-32"/>
      <path d="M 10.203125 23 
Q 9.375 23 8.828125 23.625 
Q 8.296875 24.265625 8.296875 25 
Q 8.296875 25.734375 8.828125 26.359375 
Q 9.375 27 10.203125 27 
L 67.578125 27 
Q 68.359375 27 68.875 26.359375 
Q 69.390625 25.734375 69.390625 25 
Q 69.390625 24.265625 68.875 23.625 
Q 68.359375 23 67.578125 23 
z
" id="Cmsy10-a1"/>
      <path d="M 17.390625 2.59375 
Q 17.390625 8.15625 18.359375 13.46875 
Q 19.34375 18.796875 21.21875 24 
Q 23.09375 29.203125 25.75 34.203125 
Q 28.421875 39.203125 31.59375 43.609375 
L 40.71875 56.296875 
L 29.296875 56.296875 
Q 11.53125 56.296875 10.984375 55.8125 
Q 9.671875 54.203125 8.5 46.578125 
L 5.609375 46.578125 
L 8.890625 67.578125 
L 11.8125 67.578125 
L 11.8125 67.28125 
Q 11.8125 65.484375 17.921875 64.9375 
Q 24.03125 64.40625 29.890625 64.40625 
L 48.484375 64.40625 
L 48.484375 61.8125 
Q 48.484375 61.71875 48.453125 61.671875 
Q 48.4375 61.625 48.390625 61.53125 
L 34.625 42.1875 
Q 29.546875 34.671875 28.265625 25.484375 
Q 27 16.3125 27 2.59375 
Q 27 0.640625 25.578125 -0.78125 
Q 24.171875 -2.203125 22.21875 -2.203125 
Q 20.21875 -2.203125 18.796875 -0.78125 
Q 17.390625 0.640625 17.390625 2.59375 
" id="Cmr10-37"/>
      <path d="M 8.6875 11.375 
Q 9.71875 8.453125 11.84375 6.046875 
Q 13.96875 3.65625 16.875 2.3125 
Q 19.78125 0.984375 22.90625 0.984375 
Q 30.125 0.984375 32.859375 6.59375 
Q 35.59375 12.203125 35.59375 20.21875 
Q 35.59375 23.6875 35.46875 26.046875 
Q 35.359375 28.421875 34.8125 30.609375 
Q 33.890625 34.125 31.5625 36.765625 
Q 29.25 39.40625 25.875 39.40625 
Q 22.515625 39.40625 20.09375 38.375 
Q 17.671875 37.359375 16.15625 35.984375 
Q 14.65625 34.625 13.484375 33.109375 
Q 12.3125 31.59375 12.015625 31.5 
L 10.890625 31.5 
Q 10.640625 31.5 10.265625 31.8125 
Q 9.90625 32.125 9.90625 32.421875 
L 9.90625 65.828125 
Q 9.90625 66.0625 10.21875 66.328125 
Q 10.546875 66.609375 10.890625 66.609375 
L 11.1875 66.609375 
Q 17.921875 63.375 25.484375 63.375 
Q 32.90625 63.375 39.796875 66.609375 
L 40.09375 66.609375 
Q 40.4375 66.609375 40.71875 66.359375 
Q 41.015625 66.109375 41.015625 65.828125 
L 41.015625 64.890625 
Q 41.015625 64.40625 40.828125 64.40625 
Q 37.40625 59.859375 32.25 57.3125 
Q 27.09375 54.78125 21.578125 54.78125 
Q 17.578125 54.78125 13.375 55.90625 
L 13.375 37.015625 
Q 16.703125 39.703125 19.3125 40.84375 
Q 21.921875 42 25.984375 42 
Q 31.5 42 35.859375 38.8125 
Q 40.234375 35.640625 42.578125 30.53125 
Q 44.921875 25.4375 44.921875 20.125 
Q 44.921875 14.109375 41.96875 8.984375 
Q 39.015625 3.859375 33.9375 0.828125 
Q 28.859375 -2.203125 22.90625 -2.203125 
Q 17.96875 -2.203125 13.84375 0.328125 
Q 9.71875 2.875 7.34375 7.171875 
Q 4.984375 11.46875 4.984375 16.3125 
Q 4.984375 18.5625 6.4375 19.96875 
Q 7.90625 21.390625 10.109375 21.390625 
Q 12.3125 21.390625 13.796875 19.9375 
Q 15.28125 18.5 15.28125 16.3125 
Q 15.28125 14.15625 13.796875 12.671875 
Q 12.3125 11.1875 10.109375 11.1875 
Q 9.765625 11.1875 9.328125 11.25 
Q 8.890625 11.328125 8.6875 11.375 
" id="Cmr10-35"/>
      <path id="BitstreamVeraSans-Roman-20"/>
      <path d="M 11.28125 4.203125 
Q 14.015625 0.984375 20.796875 0.984375 
Q 24.609375 0.984375 27.90625 3.5625 
Q 31.203125 6.15625 33.015625 9.90625 
Q 35.109375 14.15625 35.6875 18.96875 
Q 36.28125 23.78125 36.28125 30.90625 
Q 34.578125 26.859375 31.375 24.265625 
Q 28.171875 21.6875 24.03125 21.6875 
Q 18.21875 21.6875 13.640625 24.828125 
Q 9.078125 27.984375 6.640625 33.125 
Q 4.203125 38.28125 4.203125 44.09375 
Q 4.203125 50.09375 6.9375 55.296875 
Q 9.671875 60.5 14.5 63.546875 
Q 19.34375 66.609375 25.484375 66.609375 
Q 31.546875 66.609375 35.625 63.3125 
Q 39.703125 60.015625 41.84375 54.8125 
Q 44 49.609375 44.84375 43.796875 
Q 45.703125 37.984375 45.703125 32.328125 
Q 45.703125 24.609375 42.875 16.578125 
Q 40.046875 8.546875 34.40625 3.171875 
Q 28.765625 -2.203125 20.796875 -2.203125 
Q 14.890625 -2.203125 10.78125 0.578125 
Q 6.6875 3.375 6.6875 8.984375 
Q 6.6875 11.03125 8.078125 12.421875 
Q 9.46875 13.8125 11.53125 13.8125 
Q 13.53125 13.8125 14.921875 12.421875 
Q 16.3125 11.03125 16.3125 8.984375 
Q 16.3125 7.03125 14.890625 5.609375 
Q 13.484375 4.203125 11.53125 4.203125 
z
M 24.421875 24.3125 
Q 28.515625 24.3125 31.125 27.0625 
Q 33.734375 29.828125 34.90625 33.921875 
Q 36.078125 38.03125 36.078125 42.09375 
L 36.078125 44 
L 36.078125 44.390625 
Q 36.078125 51.90625 33.875 57.8125 
Q 31.6875 63.71875 25.484375 63.71875 
Q 21.53125 63.71875 19.0625 61.984375 
Q 16.609375 60.25 15.4375 57.375 
Q 14.265625 54.5 13.9375 51.21875 
Q 13.625 47.953125 13.625 44.09375 
Q 13.625 38.421875 14.15625 34.421875 
Q 14.703125 30.421875 17.09375 27.359375 
Q 19.484375 24.3125 24.421875 24.3125 
" id="Cmr10-39"/>
      <path d="M 7.71875 1.703125 
Q 7.71875 2.296875 7.8125 2.59375 
L 15.28125 32.421875 
Q 16.015625 35.203125 16.015625 37.3125 
Q 16.015625 41.609375 13.09375 41.609375 
Q 9.96875 41.609375 8.453125 37.859375 
Q 6.9375 34.125 5.515625 28.421875 
Q 5.515625 28.125 5.21875 27.953125 
Q 4.9375 27.78125 4.6875 27.78125 
L 3.515625 27.78125 
Q 3.171875 27.78125 2.921875 28.140625 
Q 2.6875 28.515625 2.6875 28.8125 
Q 3.765625 33.15625 4.765625 36.171875 
Q 5.765625 39.203125 7.890625 41.6875 
Q 10.015625 44.1875 13.1875 44.1875 
Q 16.65625 44.1875 19.265625 42.1875 
Q 21.875 40.1875 22.515625 36.921875 
Q 25.046875 40.234375 28.296875 42.203125 
Q 31.546875 44.1875 35.40625 44.1875 
Q 38.578125 44.1875 40.984375 42.328125 
Q 43.40625 40.484375 43.40625 37.3125 
Q 43.40625 34.765625 41.8125 32.875 
Q 40.234375 31 37.59375 31 
Q 35.984375 31 34.890625 32 
Q 33.796875 33.015625 33.796875 34.625 
Q 33.796875 36.8125 35.40625 38.546875 
Q 37.015625 40.28125 39.109375 40.28125 
Q 37.5 41.609375 35.203125 41.609375 
Q 30.90625 41.609375 27.734375 38.546875 
Q 24.5625 35.5 22.015625 30.8125 
L 14.890625 2.203125 
Q 14.546875 0.828125 13.34375 -0.140625 
Q 12.15625 -1.125 10.6875 -1.125 
Q 9.46875 -1.125 8.59375 -0.34375 
Q 7.71875 0.4375 7.71875 1.703125 
" id="Cmmi10-72"/>
      <path d="M 11.71875 12.40625 
L 22.015625 12.40625 
L 22.015625 4 
L 14.015625 -11.625 
L 7.71875 -11.625 
L 11.71875 4 
z
" id="BitstreamVeraSans-Roman-2c"/>
      <path d="M 25 -2.203125 
Q 12.75 -2.203125 8.328125 7.875 
Q 3.90625 17.96875 3.90625 31.890625 
Q 3.90625 40.578125 5.484375 48.234375 
Q 7.078125 55.90625 11.78125 61.25 
Q 16.5 66.609375 25 66.609375 
Q 31.59375 66.609375 35.78125 63.375 
Q 39.984375 60.15625 42.1875 55.046875 
Q 44.390625 49.953125 45.1875 44.109375 
Q 46 38.28125 46 31.890625 
Q 46 23.296875 44.40625 15.796875 
Q 42.828125 8.296875 38.1875 3.046875 
Q 33.546875 -2.203125 25 -2.203125 
M 25 0.390625 
Q 30.5625 0.390625 33.296875 6.09375 
Q 36.03125 11.8125 36.671875 18.75 
Q 37.3125 25.6875 37.3125 33.5 
Q 37.3125 41.015625 36.671875 47.359375 
Q 36.03125 53.71875 33.3125 58.859375 
Q 30.609375 64.015625 25 64.015625 
Q 19.34375 64.015625 16.609375 58.828125 
Q 13.875 53.65625 13.234375 47.328125 
Q 12.59375 41.015625 12.59375 33.5 
Q 12.59375 27.9375 12.859375 23 
Q 13.140625 18.0625 14.3125 12.8125 
Q 15.484375 7.5625 18.09375 3.96875 
Q 20.703125 0.390625 25 0.390625 
" id="Cmr10-30"/>
      <path d="M 7.515625 13.28125 
Q 6.6875 13.28125 6.140625 13.90625 
Q 5.609375 14.546875 5.609375 15.28125 
Q 5.609375 16.109375 6.140625 16.6875 
Q 6.6875 17.28125 7.515625 17.28125 
L 70.3125 17.28125 
Q 71.046875 17.28125 71.578125 16.6875 
Q 72.125 16.109375 72.125 15.28125 
Q 72.125 14.546875 71.578125 13.90625 
Q 71.046875 13.28125 70.3125 13.28125 
z
M 7.515625 32.71875 
Q 6.6875 32.71875 6.140625 33.296875 
Q 5.609375 33.890625 5.609375 34.71875 
Q 5.609375 35.453125 6.140625 36.078125 
Q 6.6875 36.71875 7.515625 36.71875 
L 70.3125 36.71875 
Q 71.046875 36.71875 71.578125 36.078125 
Q 72.125 35.453125 72.125 34.71875 
Q 72.125 33.890625 71.578125 33.296875 
Q 71.046875 32.71875 70.3125 32.71875 
z
" id="Cmr10-3d"/>
      <path d="M 5.609375 -23 
Q 5.609375 -22.703125 5.71875 -22.609375 
L 40.484375 73.78125 
Q 40.671875 74.359375 41.15625 74.671875 
Q 41.65625 75 42.28125 75 
Q 43.171875 75 43.71875 74.453125 
Q 44.28125 73.921875 44.28125 73 
L 44.28125 72.609375 
L 9.515625 -23.78125 
Q 8.9375 -25 7.625 -25 
Q 6.78125 -25 6.1875 -24.40625 
Q 5.609375 -23.828125 5.609375 -23 
" id="Cmmi10-3d"/>
      <path d="M 8.40625 5.515625 
Q 8.40625 7.765625 10.0625 9.375 
Q 11.71875 10.984375 13.921875 10.984375 
Q 15.28125 10.984375 16.59375 10.25 
Q 17.921875 9.515625 18.65625 8.203125 
Q 19.390625 6.890625 19.390625 5.515625 
Q 19.390625 3.328125 17.765625 1.65625 
Q 16.15625 0 13.921875 0 
Q 11.71875 0 10.0625 1.65625 
Q 8.40625 3.328125 8.40625 5.515625 
" id="Cmmi10-3a"/>
     </defs>
     <g transform="translate(98.4 50.184375)scale(0.12 -0.12)">
      <use transform="translate(0.0 0.2359375)" xlink:href="#Cmmi10-44"/>
      <use transform="translate(82.71484375 -16.7703125)scale(0.7)" xlink:href="#Cmr10-31"/>
      <use transform="translate(141.65078125 0.2359375)" xlink:href="#Cmr10-3d"/>
      <use transform="translate(236.894921875 0.2359375)" xlink:href="#Cmr10-31"/>
      <use transform="translate(286.894921875 0.2359375)" xlink:href="#Cmmi10-3a"/>
      <use transform="translate(332.1390625 0.2359375)" xlink:href="#Cmr10-37"/>
      <use transform="translate(382.1390625 0.2359375)" xlink:href="#Cmr10-35"/>
      <use transform="translate(432.1390625 0.2359375)" xlink:href="#Cmr10-31"/>
      <use transform="translate(482.1390625 0.2359375)" xlink:href="#Cmmi10-56"/>
      <use transform="translate(551.809375 38.5)scale(0.7)" xlink:href="#Cmsy10-a1"/>
      <use transform="translate(606.189257813 38.5)scale(0.7)" xlink:href="#Cmr10-31"/>
      <use transform="translate(641.189257813 38.5)scale(0.7)" xlink:href="#Cmmi10-3d"/>
      <use transform="translate(676.189257813 38.5)scale(0.7)" xlink:href="#Cmr10-32"/>
      <use transform="translate(717.566601562 0.2359375)" xlink:href="#BitstreamVeraSans-Roman-2c"/>
      <use transform="translate(749.353710937 0.2359375)" xlink:href="#BitstreamVeraSans-Roman-20"/>
      <use transform="translate(781.140820312 0.2359375)" xlink:href="#Cmmi10-72"/>
      <use transform="translate(832.561289063 38.5)scale(0.7)" xlink:href="#Cmr10-32"/>
      <use transform="translate(891.497226562 0.2359375)" xlink:href="#Cmr10-3d"/>
      <use transform="translate(986.741367187 0.2359375)" xlink:href="#Cmr10-30"/>
      <use transform="translate(1036.74136719 0.2359375)" xlink:href="#Cmmi10-3a"/>
      <use transform="translate(1081.98550781 0.2359375)" xlink:href="#Cmr10-39"/>
      <use transform="translate(1131.98550781 0.2359375)" xlink:href="#Cmr10-37"/>
     </g>
    </g>
    <g id="line2d_43">
     <path d="M 68.4 65.064375 
L 85.2 65.064375 
" style="fill:none;stroke:#008000;stroke-dasharray:6.000000,6.000000;stroke-dashoffset:0.0;stroke-width:2.0;"/>
    </g>
    <g id="line2d_44"/>
    <g id="text_18">
     <!-- $D_2=2.999 V^{-1/2}$, $r^2=0.95$ -->
     <g transform="translate(98.4 69.264375)scale(0.12 -0.12)">
      <use transform="translate(0.0 0.2359375)" xlink:href="#Cmmi10-44"/>
      <use transform="translate(82.71484375 -16.7703125)scale(0.7)" xlink:href="#Cmr10-32"/>
      <use transform="translate(141.65078125 0.2359375)" xlink:href="#Cmr10-3d"/>
      <use transform="translate(236.894921875 0.2359375)" xlink:href="#Cmr10-32"/>
      <use transform="translate(286.894921875 0.2359375)" xlink:href="#Cmmi10-3a"/>
      <use transform="translate(332.1390625 0.2359375)" xlink:href="#Cmr10-39"/>
      <use transform="translate(382.1390625 0.2359375)" xlink:href="#Cmr10-39"/>
      <use transform="translate(432.1390625 0.2359375)" xlink:href="#Cmr10-39"/>
      <use transform="translate(482.1390625 0.2359375)" xlink:href="#Cmmi10-56"/>
      <use transform="translate(551.809375 38.5)scale(0.7)" xlink:href="#Cmsy10-a1"/>
      <use transform="translate(606.189257813 38.5)scale(0.7)" xlink:href="#Cmr10-31"/>
      <use transform="translate(641.189257813 38.5)scale(0.7)" xlink:href="#Cmmi10-3d"/>
      <use transform="translate(676.189257813 38.5)scale(0.7)" xlink:href="#Cmr10-32"/>
      <use transform="translate(717.566601562 0.2359375)" xlink:href="#BitstreamVeraSans-Roman-2c"/>
      <use transform="translate(749.353710937 0.2359375)" xlink:href="#BitstreamVeraSans-Roman-20"/>
      <use transform="translate(781.140820312 0.2359375)" xlink:href="#Cmmi10-72"/>
      <use transform="translate(832.561289063 38.5)scale(0.7)" xlink:href="#Cmr10-32"/>
      <use transform="translate(891.497226562 0.2359375)" xlink:href="#Cmr10-3d"/>
      <use transform="translate(986.741367187 0.2359375)" xlink:href="#Cmr10-30"/>
      <use transform="translate(1036.74136719 0.2359375)" xlink:href="#Cmmi10-3a"/>
      <use transform="translate(1081.98550781 0.2359375)" xlink:href="#Cmr10-39"/>
      <use transform="translate(1131.98550781 0.2359375)" xlink:href="#Cmr10-35"/>
     </g>
    </g>
   </g>
  </g>
 </g>
 <defs>
  <clipPath id="p229452278b">
   <rect height="223.2" width="334.8" x="54.0" y="28.8"/>
  </clipPath>
 </defs>
</svg>
